<?xml version="1.0" encoding="utf-8"?>
<!-- Generator: Adobe Illustrator 24.0.0, SVG Export Plug-In . SVG Version: 6.00 Build 0)  -->
<svg version="1.2" baseProfile="tiny" id="Layer_1" xmlns="http://www.w3.org/2000/svg" xmlns:xlink="http://www.w3.org/1999/xlink"
	 x="0px" y="0px" viewBox="0 0 100 100" xml:space="preserve">
<path fill="#8C3C00" d="M97,64.8c-0.1-1.8-2.6-3.2-4.6-3c-2,0.2-3.7-0.3-4.9-1.1c-1.2-0.8-1.1-2.7-1.1-3.8c0-1.1-1.1-3.6-1.1-3.6
	l2.4-0.4c2.4-0.3,5.1-1.1,8.3-2.3c3.2-1.2,5.4-6.5,2.7-11.2s-12.3-4-14.8-4.3c-2.6-0.3-12.2-1-14.1-3.6c-1.9-2.6,0.1-4.7,1.8-5.4
	c1.7-0.7,3.9,0.5,6.8,1.2c2.8,0.8,8.1,0.6,12.5-0.7c4.4-1.3,5.9-4.2,6.2-5.6c0.3-1.4-1-2.1-2.5-1.2c-1.5,0.9-3.8-0.1-7.6-0.7
	c-3.9-0.5-7.6,0.3-9.6,1.1c-2,0.8-6.4,2.4-8.4,3.4c-2,0.9-6.1,3.1-4.9,8c1.1,4.9,7.3,7,11.3,7.7c4,0.8,6,0.5,11,1.2
	c5,0.7,5,2.2,5.4,3.1c0.4,1-0.3,2.8-3.1,3.4c-2.8,0.6-8.1,0.7-8.1,0.7s-1-0.5-1.9-0.8c-1-0.4-1.5-0.2-5.2-0.7
	c-3.7-0.4-4.8-0.3-8.6,0.1c-3.8,0.4-4.6,0.4-6.3,0.4c-1.7,0-3.7-0.4-3.7-0.4s-0.3-1.1-0.5-1.7c-0.2-0.7-1.1-1.8-1.5-3
	c-0.5-1.1,0.1-1.1,1.3-1.1c1.2,0,2.5-0.6,3.8-1.1c1.2-0.5,2.2-1.1,2.2-1.1s0.1-1.4-0.3-1.6c-0.4-0.2-1.1-0.8-1.7-1.1
	c-0.6-0.4-1.4-2.4-3.1-3.4c-1.7-1-0.2-1.7-0.2-1.7s2.6-1.2,4.1-2.7c1.5-1.5,0-2.4-1-3.4c-1-0.9-1.1-1.3-1.7-1.8
	c-0.7-0.4-0.5-0.8-0.2-1.2c0.3-0.4,0.2-1.1,0.8-1.1c0.6,0.1,0.7-1.2,1.6-2.4c1-1.2-0.5-1.8-1.6-2.2c-1.1-0.4-2.2-0.4-3.4-0.4
	c-1.2,0-1.3-0.4-1.3-1.2c0-0.8,0.3-1.5-0.6-2.1c-0.8-0.5-1.6-0.9-2.8-1c-0.3,0-0.6,0-0.9,0l0,0c-0.9,0-2.1,0.3-3.4,0.9
	c-1.8,0.8-2.7,0.6-4.1,0.6c-1.3,0-2.5,0.1-4.3,0.6c-1.8,0.5-2,1.5-2,1.5s-0.1,0.1-1.5,0.4c-1.4,0.3-4.1,1.1-5,1.3
	c-0.9,0.2-1.7,0.7-1.8,1.8c-0.1,1.1,0.2,2.1,0.8,3.6c0.6,1.5-0.5,1.4-1.4,0.9c-0.8-0.5-1.5-0.8-2.4-3c-0.9-2.3-2.5,0.1-2.6,1.3
	c-0.1,1.2-0.4,1.7,0.8,3.8c1.2,2.2,4.5,3.2,5.8,3.3c1.3,0.1,0.9,1.4,1,3c0.1,1.5,1.8,2,3.8,2.3c2,0.3,2.6,0.4,2.6,0.8
	c0,0.4-0.7,0.9-2.3,1.1c-1.7,0.2-4.1,0.4-5.7,1.3c-1.7,1-3.8,5.1-3.8,5.1s-0.5,0-2.5,0c-1.9-0.1-2.8-3.1-3.8-5.7
	c-1.1-2.6-1.1-3.8-1.2-5.9c-0.1-2.1,0.2-3.4,0.8-6.2c0.5-2.8,0-1.9,0.3-3.5c0.3-1.6,0-3.1-0.8-4.2c-0.8-1.1-1.3,0.2-1.3,1.1
	c0,0.8-0.5,2.1-0.9,2.1c-0.4,0-0.5-0.8-0.5-1.6c0-0.8-0.5-2-1.6-2.7c-1.1-0.6-2-0.1-2,0.7c0,0.8,0.4,3.1-0.3,3.5
	c-0.7,0.4-0.8-0.2-1.2-0.6c-0.3-0.4-1-1-1.8-1.3c-0.8-0.4-1.5,0.2-1.5,0.9c0,0.7,0.5,2.4,0.4,3.6c-0.1,1.3-0.5,2.1,0.7,4.6
	s1.8,2.5,0.8,3.4c-0.9,0.9-3.1-2.3-3.4-2.7c-0.3-0.4-1.2-0.9-1.6,0.4c-0.5,1.3-0.4,2.7,1.3,6.1c1.7,3.4,4,4.1,5.1,4.1
	c1.1-0.1,1.3,0.3,1.5,1c0.2,0.7,0.5,3.9,2,10.3c1.5,6.5,9.8,4.9,9.8,4.9l0.5,2.1c0,0-0.3,0.4-1.1,1.7c-0.8,1.2-0.8,4-0.7,5.3
	c0.1,1.4,0.4,2.7,1.7,2.2c1.3-0.5,1.7,0.3,1.7,0.3s-0.6,2.8-0.6,4.5c0,1.8-0.6,2.8-1.5,5.5c-0.9,2.7-3,4.5-3.8,5.3
	c-0.8,0.8-1.2,0.9-1.9,0.9c-0.6,0-1.3,0-2.9,0.5c-1.6,0.6-1.9,3.2-1.9,3.2s-0.4,0.4-1.9,1c-1.5,0.6-2.2,1.5-2.2,1.5h21.8
	c0.3-0.8,0.7-2.3,1-4.6c0.4-3.4,0.8-5.9,2-8.7c1.2-2.8,1.6-3.6,3.1-5.1c1.5-1.5,1.4-1.8,2.9-1.8c1.5,0,3.4,0.1,4.3,0.3
	c0.9,0.2,1.8-0.2,3.5-0.6c1.7-0.4,3.7-0.6,5.8-1.3c2.1-0.7,6-1.5,6-1.5s-0.7,4.6-0.6,6.1c0.1,1.5,0.9,3.9,1.7,3.2
	c0.8-0.7,1-0.8,1.7,0.3c0.7,1.1,1.4,1.6,1.4,1.6s0.6,0.9-0.2,2c-0.8,1-1,1.8-1.4,2.4c-0.4,0.6-0.9,1.6-2.4,1.2
	c-1.5-0.4-3.1-0.7-4.1-0.2c-0.9,0.4-1.8,1.1-2.2,1.9c-0.3,0.8-0.9,0.8-1.6,1.1c-0.7,0.3-1.7,1-2.2,2c-0.3,0.5-0.5,1.2-0.7,1.8h19.9
	c0.4-1.1,1.2-2.8,1.8-3.6c0.9-1.2,2.7-4.2,2.5-5.7c-0.1-1.5-2-3.3-1.9-4.8c0.1-1.5,0.5-3,1.3-3.4c0.7-0.4,1.5-1.1,1.5-1.1
	s1.1,1.6,2,2.3c1,0.7,3.8,2.9,6.2,3.1c2.4,0.3,4.5,0.1,4.5,0.1s-0.1-2.4,0.8-2c0.9,0.4,1.9,0.5,2.5,0.7c0.6,0.1,0.5,0.3,0.7,1.3
	c0.3,1,0.8,2.8,0.1,3.9c-0.8,1.2-1.8,2-1.8,2s-2.6,0.1-4.7,1c-2.2,0.8-3.1,1.8-3.4,2.6C77,85.7,77,86.1,77,86.1s-1.5,0.2-2.4,1.1
	c-0.4,0.4-0.7,1-0.9,1.5h20.5c0,0,2.5-5.1,3-6.5c0.5-1.3,0.6-2.7,0.6-2.7s0.2-3,0-6.6C97.7,69.1,97.1,66.6,97,64.8z"/>
<path fill="#FFEA29" d="M10.6,87.6c0.2,0.3,0.3,0.7,0.4,1H7.2c0.2-0.4,0.5-0.8,1-1h0C8.9,87.4,10.1,87.1,10.6,87.6z M13.3,87.5
	c-0.5,0.3-1,0.7-1.3,1.1h4.1c0.1-0.4,0.2-0.9-0.3-1.3C14.9,86.5,14,87.2,13.3,87.5z M49,85.8c-0.5,0-0.8,0.4-1.5,0.8
	c-0.7,0.4-0.8,1.1-0.9,1.7c0,0.1,0,0.2,0,0.3h1.8c0-0.1,0.1-0.1,0.1-0.3c0-0.5,0.2-0.9,0.9-1.6C50.1,86.1,49.4,85.8,49,85.8z
	 M51.8,86.7c-0.4,0.1-1,0.8-1.6,1.2c-0.3,0.2-0.5,0.5-0.7,0.7h2.6c0.1-0.3,0.3-0.6,0.3-0.9l0,0C52.4,87.2,52.2,86.7,51.8,86.7z
	 M75.7,87.8c-0.4,0.3-0.6,0.5-0.8,0.8h3.6c0-0.3,0-0.7-0.3-1.1C77.6,86.9,76.6,87.3,75.7,87.8z M82.1,87.6L82.1,87.6
	c-0.6,0.3-1,0.7-1.2,1h3.6c0-0.1,0-0.3,0-0.4C84.4,87.6,83.3,87,82.1,87.6z M2.1,30.2c-0.3-0.3-0.8-1.1-0.8-1.1s-0.1,0.3-0.1,1.1
	C1.2,31.1,2,32,2,32l1.1-0.8C3.1,31.2,2.4,30.6,2.1,30.2z M6,21.8L6,21.8c0.6-0.3,1.1-0.4,0.6-1.1c-0.5-0.7-0.9-1.4-1.3-1.6
	c-0.5-0.1-0.9-0.1-0.9-0.1s0.5,1.2,0.7,2C5.1,21.8,5.4,22.1,6,21.8z M9.5,18.9c-0.1,0.6,0.1,0.9,0.6,0.6c0.5-0.3,0.7-1,0.5-1.6
	C10.3,17.4,9.7,17,9.7,17l-0.4-0.3C9.3,16.8,9.6,18.3,9.5,18.9z M14.6,19.8L14.6,19.8c0.1-0.7-0.2-1.4-0.2-1.4s0,0.8-0.4,1.3
	c-0.3,0.5-0.3,0.3,0.1,0.7C14.4,20.7,14.5,20.4,14.6,19.8z M8.1,36.3c2-0.2,2.4,1.2,2.8,2.8c0.3,1.5,0.3,5.2,1.8,8.6
	c1.4,3.4,6.2,3.6,6.2,3.6c0.1-1.6,0.7-3.8,1.4-5.6c0.1-0.3,0.8-1.9-0.9-1.9c-1.7,0-1.6-0.7-2.6-2.3c-1-1.6-3-5.9-3.5-8.7
	c-0.5-2.8,0.4-6.9,0.9-8.4c0.5-1.5,0.5-2.5,0-2.8c-0.5-0.3-1.6,0-1.6,0s0.4,1.3-0.1,1.5c-0.5,0.2-0.9-0.7-1.2-1.6
	c-0.4-0.9-0.8-0.8-1.4-0.8C9,20.8,9,21.4,9.5,22.1C10,22.8,9.7,24,9.7,24s-1.5-1.1-2.1-1.4c-0.6-0.3-2,0.3-2.2,1.1
	c-0.1,0.8,0.5,2.9,1.8,4c1.3,1.1,1.3,3.3,0.9,4.3c-0.4,1-2.3,0.9-2.7,0.4c-0.4-0.5-1.2-0.6-1.8,0c-0.5,0.6-1.1,0.9,0.2,2.3l0,0
	C5.1,36.1,6.1,36.5,8.1,36.3z M45.5,15.7L45.5,15.7c0.5-0.3,1.4-0.7,1.4-0.7s1.1-0.3,2.2-0.4c1-0.1,0.8-0.7,0.6-1.2
	c-0.2-0.5-0.6-0.7-2-0.7c-1.4,0-2.2,0.7-3,1c-0.8,0.3-1.7,0.5-1.7,0.5s0.2,0.2,0.7,0.9C44.3,15.9,45,16,45.5,15.7z M51,21.1L51,21.1
	c0.5,0,1.1-0.3,1.1-0.3s1-0.5,1.9-0.8c0.9-0.3,1.3-0.4,1.8-1.5c0.5-1.1-0.6-1.1-2.2-1.5c-1.6-0.4-2.3,0.1-2.5,0.7
	C51,18.3,51,19,50.4,20.1C49.8,21.3,50.5,21.1,51,21.1z M50.5,22.6c-1.5,0-3.2,2.3-3.9,2.7c-0.7,0.4-0.3,0.8-0.3,0.8
	s0.5,0.9,0.6,1.9c0.2,0.9,0.3,2.4,0.3,2.4s0.2,0.1,1.1,0.1c0.9,0,1.4-0.5,2.3-1.1c0.9-0.6,1.5-0.9,2.8-1.1c1.2-0.2,1.8-0.4,3.2-1.2
	c1.4-0.7-0.7-2-2.2-3.2C53,22.8,52.1,22.6,50.5,22.6z M21.1,49.8c0-1.8-0.1-2.5,2.2-3.7c2.4-1.2,3.6-1.9,4.2-2.2
	c0.5-0.3,1.2-0.7,1.5-0.3c0.3,0.5-0.5,0.7-0.2,1.4c0.3,0.7,0.6,1.3,1.9,0.5c1.3-0.8,3.1-1.3,3.7-0.8c0.6,0.4,0.2,2.3,0.3,2.9
	c0.1,0.6,0.8,1.7,1.9,1.7c1,0,2.7-1.5,3.6-3.3c0.9-1.9,0.4-3.5-0.8-1.9c-1.2,1.6-3.9,4-3.8,1.5c0.2-2.6,0.7-3.6,0.7-3.6
	s0.6-1.5-1.1-0.5c-1.8,0.9-2.4,1.4-3,1.9c-0.5,0.4-2.3,0.8-1.4-0.8c0.9-1.6,0.9-3.3-0.9-2.2c-1.9,1.1-3.8,2.1-5.4,2.9
	c-1.6,0.8-2.1,1-2.1,1s1.2-4.6,4.7-6c3.5-1.4,5.4-1.3,6.2-1.5c0.8-0.1,1.3-0.8,2.2-1.1c0.8-0.3,1.7-1,2.2-1.3
	c0.5-0.3,1.4-0.5,0.3-1.5c-1.2-1-1.6-1.5-4.1-1.8c-2.5-0.3-3.8-0.4-3.8-0.4s-1.3,0.1-1.3-0.6s0.3-0.9,1.4-0.9c1.1,0,3.2-1,3.4-1.8
	c0.1-0.8-0.3-2.2-1.8-2.8c-1.5-0.7-2.8-0.7-3.4-0.7c-0.6,0-0.9-0.2-0.9-0.9c0-0.8,0.2-0.8,0.8-1.1c0.6-0.3,0.9-0.8,0.4-1.1
	C28,20.5,27,20.5,27,20.5s-0.2-1-0.2-1.6c0-0.6,0.4-0.7,1.7-1.1c1.2-0.3,2.8-0.8,4.1-1c1.3-0.2,2.6-0.3,2.6-0.3s-0.3-1.4,1.3-1.8
	c1.6-0.4,3.4-0.8,5-0.5c1.6,0.3,1.8,1.8,1.8,1.8s0.3,0.8,0,1.5c-0.3,0.7,0.4,1.5,0.4,2.1c0,0.5,0.5,1.5,0.7-0.3
	c0.2-1.7,0.8-2.4,1.6-3.1c0.8-0.7,2.9-0.8,3.8,0.2c0.8,1.1,0.4,2.7-0.4,3.9c-0.7,1.1-1.4,2.3-1.5,2.8c-0.1,0.4-0.8,0.6-1.4-0.1
	c-0.7-0.7-1-0.9-1.4,0.3c-0.4,1.2-1.1,2.6-2.2,2.7c-1.2,0.1-2.2-0.1-2.1,0.4c0.1,0.5,0.6,0.3,1.5,0.3c0.9,0,2.6-0.7,3.2,0
	c0.6,0.7,0.4,2.2-0.4,3.7c-0.8,1.5-1.6,2.2-1.6,2.2s-0.7,0.5-0.3,0.8c0.4,0.2,0.8-0.1,1.4-0.6c0.6-0.5,1.4-1.1,1.7-1.6
	c0.3-0.5,0.8-0.5,1,0l0.2,0.5c0,0,2.2-0.4,3.8,0c1.6,0.4,2.4,1.3,3.7,2.4c1.3,1.2,2,2.3,2,2.3s0,0.9-0.9,1.1
	c-0.9,0.1-1.5,0.3-2.7,0.4c-1.2,0.2-3.2-0.4-3.7,0.3c-0.5,0.7-0.3,2.3,1.3,3.7c1.6,1.4,2.7,3.8,3,4.9c0.3,1.1,0.3,3-1.7,2
	c-2-1-3.3-1.9-3.8-1.6c-0.4,0.4-0.1,3-0.2,4.1c-0.1,1.2-0.3,3.5-1.8,2c-1.5-1.5-2.3-2.2-2.3-2.2s-1.1-0.8-1.3,0.1
	c-0.3,1-0.8,3.5-1.2,5.1c-0.4,1.6-0.9,3.4-2.1,2.1c-1.1-1.3-2.4-3.5-2.4-4.5c-0.1-1-0.8-2-1.6-0.9c-0.8,1.2-1.1,3.6-1.5,4.7
	c-0.4,1.2-1.1,2.1-2,0.5c-0.9-1.6-1.9-4.2-1.6-6.6c0.3-2.4,0.4-4.6-1.9-1.7c-2.3,2.9-4.8,6.5-5.8,4.2v0
	C21.5,51.9,21.1,51.5,21.1,49.8z M41.5,18.3c0-1.2-0.9-2.1-2.1-2.1c-1.2,0-2.2,0.9-2.2,2.1s0.9,2.1,2.2,2.1
	C40.6,20.4,41.5,19.5,41.5,18.3z M30.1,27.9c1.2-0.1,1.8-0.7,1.8-1.4c0-0.7-0.6-1.4-2.2-1.3c-3.8,0.3-7.5-1-8.2-4.8
	c0,0-1.3,2.4,1.1,5C24.9,28,28.9,28,30.1,27.9z M26.7,65.1c-0.2-0.9-1.6-0.8-2.3-0.7c-0.8,0-0.9,1.3-1,2.4c-0.1,1.2-0.7,4.6-1.2,7.6
	c-0.5,3-3.9,6.9-4.9,7.8c-0.9,0.8-1.7,1.2-2.3,1.2c-0.6,0-2,0-2.7,0.4c-0.7,0.4-1.4,1.5-1.5,2.4c0,0.9,1.3,1.3,1.3,1.3
	s1.1-0.7,1.5-1.2c0.4-0.5,1.3-0.6,2.2-0.8c0.9-0.2,1.1,0.2,0.7,0.6c-0.3,0.5-0.2,0.6,0.5,1.8v0c0.2,0.4,0.4,0.5,0.7,0.7h5.9
	c1-0.3,1-1.2,1-1.8c0.1-0.8,0.7-2.9,1.5-6.8c0.8-3.9,2.2-6.7,2.8-8.2c0.6-1.5-0.6-2.1-1-3.1C27.5,67.7,26.9,66,26.7,65.1z
	 M68.9,65.1c-0.5-0.4-2.3-1.2-4.1-1.2c-1.8,0-5,0.4-6.2,1.2c-1.2,0.9-1.9,3.9-1.9,5.5c0,1.6,0.3,1.9,0.7,1.9c0.4,0,1.2-1.1,1.2-1.1
	s1.6,2.1,2.6,3.6c1,1.5,0.5,2.1,0.1,3.2c-0.5,1.1-2.1,4.2-3.4,4.8c-1.3,0.7-2.3,0-3.8-0.2c-1.5-0.3-2.4,0.2-3.2,1.1
	c-0.9,0.9-0.1,1.6,0.5,1.6c0.5,0,1.3,0,1.9,0.7c0.4,0.5,0.1,1.7-0.1,2.4h7.6c1.3-0.6,2.2-2.4,2.6-3.3c0.4-1.1,2-2.6,2.8-3.3
	c0.8-0.8,0.9-1.3,0.9-2.9s-0.4-2.6-1-3.7c-0.6-1.1-1.1-2.8-0.9-3.7c0.2-0.9,1.9-2,3.1-2.9l0,0c1.2-0.9,1-1.2,1.1-2.1
	C69.4,65.7,69.4,65.4,68.9,65.1z M94.7,66.8c-0.1-1.9,0-3.3-3.5-3.6c-3.5-0.3-4.6-1.8-5.8-3c-1.2-1.2-0.9-3.9-1.8-7.3
	c-0.9-3.3-3.3-3.8-7.4-4.6c-4.1-0.8-7.2-0.9-10.3-0.6c-3.1,0.3-6.9,0.7-9,0.5c-2.1-0.2-1.8,0.4-1,1.6v0c0.7,1.2,0.4,1.5-0.7,1.7
	c-1.1,0.3-2.3,0.4-4,0.3c-1.7-0.1-1.6,0.1-1.7,0.9c0,0.8-0.2,2.7-1.2,4c-1,1.4-2.2,0.8-3,0.3c-0.8-0.5-1.2-0.4-1.5,0.6
	c-0.3,0.9-0.8,1.6-1.6,3c-0.8,1.4-1.3,1.5-1.9,1.3c-0.5-0.1-1.1-1-1.6-1c-0.6-0.1-1.5-1.2-2.3-2.6c-0.8-1.3-1.3,0.1-1.8,1.4
	c-0.6,1.2-1.2,2-2.2,1.9c-1.1-0.1-2.3-2.2-3-3.4c-0.6-1.2-1-2.4-1.9-2.4c-0.9,0-2.5,2-3.6,2.6c-1,0.5-1.3,0.3-1.8-0.3
	c-0.5-0.7-1.1,0.3-1.7,1.8c-0.6,1.6,0,2.9,0.9,3.3c0.8,0.4,2.6-0.8,3.7-1.6c1.1-0.8,1.7-0.6,2.8-0.6c1.2,0,1.1,1.9,1.6,4.8
	c0.5,2.8,2.2,3.2,2.2,3.2s0.6,0.5,1.9-1.7c1.3-2.2,1.4-4.3,2.7-4.3c1.2,0,1.3,0.3,2.6,2c1.2,1.7,2.3,3,3,1.7
	c0.7-1.3,1.3-3.2,2.1-3.8c0.8-0.7,1.6-0.9,0.7,0.4c-0.9,1.2-1.2,2.6,0.5,2c1.8-0.5,8.4-3.2,11.1-3.8c0,0,3.2-0.5,6.8-0.7
	c3.6-0.2,4.6-0.4,6-0.4c1.4,0,1.5-0.1,1.6-1.1c0.1-0.9-0.7-0.7-3.3-0.7c-2.7,0-4.5,0.3-6.3,0.6c-1.9,0.3-2.7,0.3-2.4-0.2
	c0.3-0.5,0.8-0.8,3-1.1c2.1-0.3,6.5-0.6,8.8-0.6c2.3,0,1.6,0.7,1.4,2.2c-0.2,1.5,0.2,3.7,0.3,5.1c0.1,1.4,0.2,1.9,1.4,3.9
	c1.2,2,5.5,3.2,6.7,3.9c1.2,0.7,1.1,0,1-1.2c-0.1-1.2,0.9-1.2,2-0.5c1.1,0.6,2.9,1.2,4.2,1.5c1.3,0.3,1.5,0.5,1.5,1.2
	c0,0.7,0.1,2.2,0.3,3.5c0.1,1.4,0.1,1.8-0.5,2.6c-0.6,0.9-3,3.3-3,3.3s-1.1,0-3.4,0.6c-2.3,0.6-3,1.7-3.2,2.6
	c-0.3,0.9,0.4,1.2,0.5,1.6c0.1,0.2,0,0.7,0,1.1h0.5c0.2-0.3,0.5-0.8,0.8-1.2c0.8-1.1,2.8-1.3,4.2-0.7c0.9,0.4,0.9,1.3,0.8,1.9h5.3
	c0.7-1.4,2.4-4.7,2.9-5.7c0.5-1.3,0.9-2.1,0.9-3.8c0-1.8,0.2-8.5-0.1-8.9C94.3,69.8,94.8,68.7,94.7,66.8z M96.4,47.8
	c-2.7,2.3-6.7,2.8-9,3c-2.3,0.2-3.1,0.3-3.1,0.3s-1.1-1.6-1.8-2.1c1.4-0.2,8.9-0.4,10.5-2.6c1.6-2.2,2-6.2-3.4-7.3
	c-5.4-1.1-16.8-1.2-20.4-3.6c-3.6-2.4-5.5-4.2-3.9-7.9c1.7-3.7,7.4-4.3,9.6-5.1c2.2-0.7,3.8-2.4,8.4-2.3c4.6,0.1,6.5,1.2,9,1.2
	c2.5-0.1,3.1-0.4,3.1-0.4s-1.1,3.5-6.1,4.1c-5,0.6-8,0.5-10.5-0.4c-2.5-0.9-5.4-0.2-7.1,0.3c-1.8,0.5-4.2,1.9-4.2,4.6
	c0,2.6,2.2,4.5,6.8,5.2c4.6,0.8,7.7,1.1,11.7,1.5c4,0.4,8,0.7,10.4,3.1C98.9,41.9,99.1,45.5,96.4,47.8z M79,22.4
	c0,0,0.7,0.6,1.6,0.5c0.9-0.1,2.7-0.1,5.4,0.4c2.8,0.5,4.8-0.8,4.8-0.8s-2.5-0.3-5.3-0.6v0C82.7,21.7,79,22.4,79,22.4z"/>
</svg>
