<?xml version="1.0" encoding="utf-8"?>
<!-- Generator: Adobe Illustrator 24.0.0, SVG Export Plug-In . SVG Version: 6.00 Build 0)  -->
<svg version="1.2" baseProfile="tiny" id="Layer_1" xmlns="http://www.w3.org/2000/svg" xmlns:xlink="http://www.w3.org/1999/xlink"
	 x="0px" y="0px" viewBox="0 0 100 100" xml:space="preserve">
<path d="M11.1,67l0.1-0.9l-0.2-0.7l-0.8-0.4l-0.3-0.2l-0.6-0.7l-0.5-0.8l-0.3-0.9l0-1l0.2-1.9l-0.2-1L9,58.2L9.5,58l0.5,0l0.5,0.3
	l0.4-0.1l0.2-0.4L11,57.4l-0.3-0.6l0.9-0.5l0.5-0.3l0.9-0.9l0.2-0.5l0.3-0.7l0-1.7L13,50.6l-0.7-1l-0.9-0.9l-1.5-2.5l-0.6-1.4
	l-0.4-1.4l0-1l0.4-0.7l0.5-0.4l0.3-0.6l-0.2-1.1l-1-2.1l-0.4-1.2l0-1L9.2,33l1.3-1.3l2.4-0.5l2.6,0l1.8,0.2l-0.8-4.5l0-1.6l0-0.1
	l0.3-1.8l0.7-1.5l1.9-2.6l-1-0.5l0.7-1l5.5-4.1l1.1-0.4l-0.1-0.2l-0.2-0.6l-0.1-0.2l0.8-0.4l2.6-0.2l1.1,0.3l1.2,0.8l0.3,0.4l0,0.4
	l0,0.4l0.1,0.5l0.4,0.7l0.9,1.1l0,0.1l0.1,0.3l0.5-0.4l0.3-0.5l0.3-0.5l0.2-0.3l0.1-0.1l0.5-0.3l1.1-0.1l0.3-0.3l-1.3-2.5l-1.3-3.6
	l-1.5-2L31.5,6l-1,0.2l0-0.3l0.2-0.5l0-0.4l-0.6-0.9l-0.3-0.2l-0.7-0.2l-0.4-0.3l0-0.5l0.3-0.5l0.4-0.3l0.8-0.4l1-1.2l0.6-0.5l1-0.1
	l0.6,0.6L34,1.5l0.6,0.7l0.7,0.3l0.9,0l0.9-0.3l1.2-1.4l1.1-0.1l2.1,0.3l-0.9,1.4l0,1.7l0.7,1.6l1.1,1l5.9,2.7L49,9.8l1.8,2.7
	l2.6,2.7l0.5,0.8l0.7,1.7l0.4,0.7l1.5,1.3l0.1,0.1l1.3,1.8l0.7,0.7l0.9,0.5l1.9,0.6l0.9,0.1l0.6-0.2l0.4-0.4l0.3,0l1.3,2.3l0.8,1.1
	l0.9,0.7l1,0.4l1.4,0.1l1.5-0.1l0.5-0.3l1-1l0.4-0.2l0.5,0.2l0.3,0.5l0.2,0.6l0.3,0.6l0.4,0.4l2.6,1.9l1.5,1.5l0.1,0.1l2.6,2.6
	l0.5,0.2l0.5,0.2l2.3,0.2l1.2,0.5l2.3,1.6l2.7,1.4l0.7,0.9l0.1,1.5l-0.4,2.3l-3.5,0.6L86,44l-0.4,0.2l-0.4,0.7l0,0.6l0.1,0.5
	l-0.1,0.6l-1.1,1.2l-1.5-0.4l-1.6-1L79.6,46l-0.5,0.2l-0.4,0.3l-0.9,0.7l-0.4,0.5L77.3,49l0.5,0.9l0,0l2.5,2.4l0.3,0.6l0.1,0.2
	l-0.6,1.5l-0.5,0.9l-0.2,0.5l0,0.9l0.1,0.8l0,0.8l-0.5,0.8l-1.1-0.6L77,59.4l-1.6,2.1l-1.1,0.3l-2.1-0.1l-1.1,0.8l0,0l-0.4,0.4
	l-1.6,1L68.8,64l-0.4,0.1L67.6,64l-0.7-0.4l-1.4-1.1l-0.7-1.8l-0.1-0.5l0-0.4l0.1-0.9l0.1-0.4l0.3-0.7l0.2-0.3l0.1,0.1l0-0.6l0-0.6
	l-0.4-1.5l-0.7-1.3l-1-0.5l-1,0.5l-0.8,0.7L61,54.6l-1.1,1.3l-0.7,1.2l-0.3,0.8l-0.2,1.5l-0.2,0.7l-0.5,0.6l-0.6,0.4l-0.5,0.4
	l-0.2,0.9v0L56,63.6l-0.6,1l-0.7,0.8L53.8,66l-0.6,1L51,69.5l-0.2,0.3l-0.4,1l-0.1,0.4l0,0.8l0,0.3l-4.2,6.5l-1.3,1.4l-0.1,0.6
	l0.4,0.9l0,0l0.7,0.8l2.5,1.8l0.6,0.8l0.1,0.1l0.1,0.6l-0.8,1.7l-0.2,1l0,1.2l0.2,1.1l0.4,0.9l0,0l0.3,0.4l-0.2,1l-0.3,0.2l-0.4,0
	l-0.2,0.2l0.3,1.3l-0.1,0.4l-0.2,0.3L47.9,96l0,0.4l0,0.2l0.1,0.2l0.4,0.4l0.3,0.6l0,1.5l0,0.6l-0.8-0.7l-1.6-1.8l-0.7-0.4l-3.2-1.1
	l-0.7-0.5l-1.1-0.4L40.3,95l-0.3-0.6l0-0.3l0.1-0.3l-0.1-0.6l-0.2-0.1l-0.4-0.4l-0.3-0.4l0.2-0.2l0-0.2l-0.2-2.9l-2.5-2.3l-0.3-0.8
	l0.4-0.8l-0.3-0.3l-0.5-0.2L35,83.2l-1.7,0L33,82.6L32.9,82l-0.2-0.1l-0.3,0l-0.3-0.2l-0.6-1.3l-0.6-0.7l-1.7-1.3l-0.5-0.9l-0.3-1.9
	L28,74.8l-0.6-0.4h-0.8l-0.7,0.3l-0.3,0.5l-0.2-0.3l-0.3-0.3L25,74.4l-0.7,0.4L24,75l-0.2,0.3l-0.1,0.1l-0.3,0.2L23,75.2l-0.4-0.8
	l-1.4-1.2l-0.6-0.8l0-0.8l-0.3-0.2l-0.4-0.4l-0.3-0.2v-0.4l0.1-0.8L19,68.8l-0.9,0L17.9,70h-0.3l-0.3-0.2l-0.9,0.1l-0.2-0.1
	l-0.2-0.4L15.4,69l-0.6-0.4l-0.4-0.2l0.1-0.2l0-0.1l0,0l0.2-0.1l-1.1-0.8l-0.3-0.6l0.2-0.7l0.6-0.2l3.6,1.2l0.5,0.2l1.3,0.7l0.6,0.6
	l0.3-0.9l-0.1-0.7l-1-2.2l0-0.5l0.2-0.9L17.9,65l-2,0.4l-4.6-0.6v0.4l0.8,0.6l-0.4,1.7l0.7,0.5l-0.8-0.3L11.1,67z"/>
</svg>
