<?xml version="1.0" encoding="utf-8"?>
<!-- Generator: Adobe Illustrator 24.0.0, SVG Export Plug-In . SVG Version: 6.00 Build 0)  -->
<svg version="1.2" baseProfile="tiny" id="Layer_1" xmlns="http://www.w3.org/2000/svg" xmlns:xlink="http://www.w3.org/1999/xlink"
	 x="0px" y="0px" viewBox="0 0 100 100" xml:space="preserve">
<path fill-rule="evenodd" d="M61.6,61.1L49.9,100L38.6,61.1L0,49.7l38.7-11.4L50.1,0l11.4,38.3L100,49.7L61.6,61.1z M86.9,42l1.3,0
	c-3.1-15.2-15-27.2-30.2-30.3l0,1.3C72.4,16.1,83.8,27.5,86.9,42z M42.4,13l0-1.3C27.2,14.8,15.3,26.8,12.2,42h1.3
	C16.5,27.5,27.9,16.1,42.4,13z M57.9,86.5l0,1.3C73.1,84.7,85,72.7,88.1,57.5l-1.3,0C83.8,72,72.4,83.5,57.9,86.5z M13.5,57.5
	l-1.3,0c3.1,15.2,15.1,27.2,30.2,30.3l0-1.3C27.9,83.5,16.5,72,13.5,57.5z"/>
<polygon fill-rule="evenodd" fill="#FFFFFF" points="4.3,49.8 48.8,49.8 39.6,60.1 50.2,95.8 50.2,51.1 60.6,60 95.2,49.8 
	51.5,49.8 60.4,39.2 50.2,4.4 50.2,48.5 39.7,39.2 4.3,49.8 "/>
</svg>
