<?xml version="1.0" encoding="utf-8"?>
<!-- Generator: Adobe Illustrator 24.0.0, SVG Export Plug-In . SVG Version: 6.00 Build 0)  -->
<svg version="1.2" baseProfile="tiny" id="Layer_1" xmlns="http://www.w3.org/2000/svg" xmlns:xlink="http://www.w3.org/1999/xlink"
	 x="0px" y="0px" viewBox="0 0 600 400" xml:space="preserve">
<g>
	<rect x="1" y="1" fill="#FFFFFF" width="598" height="398"/>
	<path d="M598,2v396H2V2H598 M600,0H0v400h600V0L600,0z"/>
</g>
<line display="none" fill="none" stroke="#000000" stroke-width="2" stroke-miterlimit="10" x1="0" y1="400" x2="600" y2="0"/>
<path display="none" d="M1.8,3.5L342.2,200L1.8,396.5V3.5 M-0.2,0v400l346.4-200L-0.2,0L-0.2,0z"/>
<line display="none" fill="none" stroke="#000000" stroke-width="2" stroke-miterlimit="10" x1="2" y1="200" x2="600" y2="200"/>
<path display="none" d="M299,81c32,0,58,26,58,58s-26,58-58,58s-58-26-58-58S267,81,299,81 M299,79c-33.1,0-60,26.9-60,60
	s26.9,60,60,60s60-26.9,60-60S332.1,79,299,79L299,79z"/>
<line display="none" fill="none" stroke="#000000" stroke-width="2" stroke-miterlimit="10" x1="600.5" y1="332.5" x2="0.5" y2="-67.5"/>
<line display="none" fill="none" stroke="#000000" stroke-width="2" stroke-miterlimit="10" x1="498.5" y1="399.5" x2="-101.5" y2="-0.5"/>
<line display="none" fill="none" stroke="#000000" stroke-width="2" stroke-miterlimit="10" x1="0" y1="102.5" x2="600" y2="97.5"/>
<line display="none" fill="none" stroke="#000000" stroke-width="2" stroke-miterlimit="10" x1="-1" y1="302" x2="599" y2="297"/>
<line display="none" fill="none" stroke="#000000" stroke-width="2" stroke-miterlimit="10" x1="2" y1="200" x2="299" y2="0.5"/>
<line display="none" fill="none" stroke="#000000" stroke-width="2" stroke-miterlimit="10" x1="600" y1="200" x2="301.5" y2="399.5"/>
<line fill="none" stroke="#000000" stroke-width="2" stroke-miterlimit="10" x1="0" y1="199" x2="600" y2="201"/>
<line fill="none" stroke="#000000" stroke-width="2" stroke-miterlimit="10" x1="2" y1="398" x2="600" y2="0"/>
<line fill="none" stroke="#000000" stroke-width="2" stroke-miterlimit="10" x1="299.2" y1="0" x2="299.2" y2="400"/>
<line fill="none" stroke="#000000" stroke-width="2" stroke-miterlimit="10" x1="-62.9" y1="86.2" x2="-62.9" y2="86.7"/>
<line fill="none" stroke="#000000" stroke-width="2" stroke-miterlimit="10" x1="146.7" y1="1" x2="146.7" y2="401"/>
<line fill="none" stroke="#000000" stroke-width="2" stroke-miterlimit="10" x1="222.9" y1="-1" x2="222.9" y2="399"/>
<line fill="none" stroke="#000000" stroke-width="2" stroke-miterlimit="10" x1="70.4" y1="0" x2="70.4" y2="400"/>
<line fill="none" stroke="#000000" stroke-width="2" stroke-miterlimit="10" x1="375.4" y1="1" x2="375.4" y2="401"/>
<line fill="none" stroke="#000000" stroke-width="2" stroke-miterlimit="10" x1="451.7" y1="0" x2="451.7" y2="400"/>
<line fill="none" stroke="#000000" stroke-width="2" stroke-miterlimit="10" x1="527.9" y1="0" x2="527.9" y2="400"/>
</svg>
