<?xml version="1.0" encoding="utf-8"?>
<!-- Generator: Adobe Illustrator 24.0.0, SVG Export Plug-In . SVG Version: 6.00 Build 0)  -->
<svg version="1.2" baseProfile="tiny" id="Layer_1" xmlns="http://www.w3.org/2000/svg" xmlns:xlink="http://www.w3.org/1999/xlink"
	 x="0px" y="0px" viewBox="0 0 357 425" xml:space="preserve">
<g>
	<g>
		<g>
			<path d="M308.9,18h2.6v9.8h-2.6V18z"/>
		</g>
		<g>
			<path d="M227.3,58h2.6v9.8h-2.6V58z"/>
			<path d="M233.1,58h2.6v9.8h-2.6V58z"/>
		</g>
		<g>
			<path d="M189.7,129.8h2.6v9.8h-2.6V129.8z"/>
			<path d="M195.5,129.8h2.6v9.8h-2.6V129.8z"/>
			<path d="M201.3,129.8h2.6v9.8h-2.6V129.8z"/>
		</g>
		<g>
			<path d="M305.3,143.2h2.6v9.8h-2.6V143.2z"/>
			<path d="M309.8,143.2h2.8l3.1,7.3l3.2-7.3h2.8l-4.6,9.8h-2.8L309.8,143.2z"/>
		</g>
		<g>
			<path d="M215.1,168.8h2.8l3.1,7.3l3.2-7.3h2.8l-4.6,9.8h-2.8L215.1,168.8z"/>
		</g>
		<g>
			<path d="M334.5,229.6h2.8l3.1,7.3l3.2-7.3h2.8l-4.6,9.8H339L334.5,229.6z"/>
			<path d="M348.3,229.6h2.6v9.8h-2.6V229.6z"/>
		</g>
		<g>
			<path d="M186.6,193.2h2.8l3.1,7.3l3.2-7.3h2.8l-4.6,9.8h-2.8L186.6,193.2z"/>
			<path d="M200.4,193.2h2.6v9.8h-2.6V193.2z"/>
			<path d="M206.1,193.2h2.6v9.8h-2.6V193.2z"/>
		</g>
		<g>
			<path d="M179.3,209.7h2.8l3.1,7.3l3.2-7.3h2.8l-4.6,9.8h-2.8L179.3,209.7z"/>
			<path d="M193.1,209.7h2.6v9.8h-2.6V209.7z"/>
			<path d="M198.9,209.7h2.6v9.8h-2.6V209.7z"/>
			<path d="M204.6,209.7h2.6v9.8h-2.6V209.7z"/>
		</g>
		<g>
			<path d="M332.1,260.4h2.6v9.8h-2.6V260.4z"/>
			<path d="M339.5,270.2h-3l4.3-5.1l-3.9-4.7h3l2.6,3.2l2.6-3.2h3l-3.9,4.7l4.3,5.1h-3l-3-3.6L339.5,270.2z"/>
		</g>
		<g>
			<path d="M187.7,236.4h-3l4.3-5.1l-3.9-4.7h3l2.6,3.2l2.6-3.2h3l-3.9,4.7l4.3,5.1h-3l-3-3.6L187.7,236.4z"/>
		</g>
		<g>
			<path d="M321.8,319.5h-3l4.3-5.1l-3.9-4.7h3l2.6,3.2l2.6-3.2h3l-3.9,4.7l4.3,5.1h-3l-3-3.6L321.8,319.5z"/>
			<path d="M332.5,309.7h2.6v9.8h-2.6V309.7z"/>
		</g>
		<g>
			<path d="M173.5,254.4h-3l4.3-5.1l-3.9-4.7h3l2.6,3.2l2.6-3.2h3l-3.9,4.7l4.3,5.1h-3l-3-3.6L173.5,254.4z"/>
			<path d="M184.1,244.6h2.6v9.8h-2.6V244.6z"/>
			<path d="M189.9,244.6h2.6v9.8h-2.6V244.6z"/>
		</g>
		<g>
			<path d="M310,344.3h-3l4.3-5.1l-3.9-4.7h3l2.6,3.2l2.6-3.2h3l-3.9,4.7l4.3,5.1h-3l-3-3.6L310,344.3z"/>
			<path d="M320.6,334.5h2.6v9.8h-2.6V334.5z"/>
			<path d="M326.4,334.5h2.6v9.8h-2.6V334.5z"/>
			<path d="M332.2,334.5h2.6v9.8h-2.6V334.5z"/>
		</g>
		<g>
			<path d="M280.1,375.1h-3l4.3-5.1l-3.9-4.7h3l2.6,3.2l2.6-3.2h3l-3.9,4.7l4.3,5.1h-3l-3-3.6L280.1,375.1z"/>
			<path d="M290.7,365.3h2.6v9.8h-2.6V365.3z"/>
			<path d="M295.3,365.3h2.8l3.1,7.3l3.2-7.3h2.8l-4.6,9.8h-2.8L295.3,365.3z"/>
		</g>
		<g>
			<path d="M138.8,412.2h-3l4.3-5.1l-3.9-4.7h3l2.6,3.2l2.6-3.2h3l-3.9,4.7l4.3,5.1h-3l-3-3.6L138.8,412.2z"/>
			<path d="M148.3,402.4h2.8l3.1,7.3l3.2-7.3h2.8l-4.6,9.8h-2.8L148.3,402.4z"/>
		</g>
	</g>
	<g>
		
			<line fill="none" stroke="#000000" stroke-width="1.5" stroke-linecap="round" stroke-linejoin="round" stroke-miterlimit="10" stroke-dasharray="0,5" x1="231.6" y1="71.9" x2="231.6" y2="101.6"/>
		
			<line fill="none" stroke="#000000" stroke-width="1.5" stroke-linecap="round" stroke-linejoin="round" stroke-miterlimit="10" stroke-dasharray="0,5" x1="208" y1="135.2" x2="244.6" y2="135.2"/>
		
			<line fill="none" stroke="#000000" stroke-width="1.5" stroke-linecap="round" stroke-linejoin="round" stroke-miterlimit="10" stroke-dasharray="0,5" x1="300.8" y1="148.1" x2="238" y2="148.1"/>
		
			<line fill="none" stroke="#000000" stroke-width="1.5" stroke-linecap="round" stroke-linejoin="round" stroke-miterlimit="10" stroke-dasharray="0,5" x1="270.6" y1="65.8" x2="307" y2="29.4"/>
		
			<line fill="none" stroke="#000000" stroke-width="1.5" stroke-linecap="round" stroke-linejoin="round" stroke-miterlimit="10" stroke-dasharray="0,5" x1="245.1" y1="174.3" x2="230" y2="174.3"/>
		
			<line fill="none" stroke="#000000" stroke-width="1.5" stroke-linecap="round" stroke-linejoin="round" stroke-miterlimit="10" stroke-dasharray="0,5" x1="286" y1="265.1" x2="330.2" y2="265.1"/>
		
			<line fill="none" stroke="#000000" stroke-width="1.5" stroke-linecap="round" stroke-linejoin="round" stroke-miterlimit="10" stroke-dasharray="0,5" x1="280.5" y1="278.7" x2="315.9" y2="314.1"/>
		
			<line fill="none" stroke="#000000" stroke-width="1.5" stroke-linecap="round" stroke-linejoin="round" stroke-miterlimit="10" stroke-dasharray="0,5" x1="250.9" y1="286.2" x2="305.5" y2="340.8"/>
		
			<line fill="none" stroke="#000000" stroke-width="1.5" stroke-linecap="round" stroke-linejoin="round" stroke-miterlimit="10" stroke-dasharray="0,5" x1="225" y1="320.6" x2="274.9" y2="370.5"/>
		
			<line fill="none" stroke="#000000" stroke-width="1.5" stroke-linecap="round" stroke-linejoin="round" stroke-miterlimit="10" stroke-dasharray="0,5" x1="173.5" y1="366.5" x2="140.8" y2="399"/>
		
			<line fill="none" stroke="#000000" stroke-width="1.5" stroke-linecap="round" stroke-linejoin="round" stroke-miterlimit="10" stroke-dasharray="0,5" x1="227.7" y1="249.9" x2="196.1" y2="249.9"/>
		
			<polyline fill="none" stroke="#000000" stroke-width="1.5" stroke-linecap="round" stroke-linejoin="round" stroke-miterlimit="10" stroke-dasharray="0,5" points="
			237.4,251.4 217.3,231.2 196.9,231.2 		"/>
		
			<line fill="none" stroke="#000000" stroke-width="1.5" stroke-linecap="round" stroke-linejoin="round" stroke-miterlimit="10" stroke-dasharray="0,5" x1="241.7" y1="243" x2="211.1" y2="212.4"/>
		
			<line fill="none" stroke="#000000" stroke-width="1.5" stroke-linecap="round" stroke-linejoin="round" stroke-miterlimit="10" stroke-dasharray="0,5" x1="264" y1="249.9" x2="211.8" y2="197.7"/>
		
			<polyline fill="none" stroke="#000000" stroke-width="1.5" stroke-linecap="round" stroke-linejoin="round" stroke-miterlimit="10" stroke-dasharray="0,5" points="
			331.8,237.2 317.7,251.3 273.7,251.3 		"/>
	</g>
	<path fill="none" stroke="#000000" stroke-width="2" stroke-linejoin="bevel" stroke-miterlimit="10" d="M138.5,64.3l-7.8,2.1
		l-2.1-1.1l-0.7,0.7l-3.2-1.1l-0.7,0.7l-37.8,6L85.1,71l-9.2-0.4l-1.1-2.1l-1.8,0.4L51.5,89.4l-0.4,7.1l-34.3,31.8l-2.1,4.2
		l-1.1,0.4l-2.1,6h0.7l1.1,2.5H14l0.7,1.8l-1.4,4.2l1.4,3.2l-8.5,20.9l4.2,7.1l-2.1-1.1l-0.7,5.7l3.5,3.9l4.2-1.1l-2.5,1.4v2.1
		l1.4,0.7v1.8l1.4-1.1l7.4,14.5l1.1,0.7v1.1l7.4,5.7l0.4,1.1l17,11.3l19.4-4.6l7.8,2.1l12.7-5.3l2.1,0.4l1.4-1.4l15.9-1.4l4.9,4.9
		v3.2l2.1,2.1h1.4l0.4,0.7l2.8-0.7l1.4-1.4l5.3,0.7l0.4-1.8h0.7l0.7,1.4l1.4,0.4l0.7,2.1l1.8,0.7l1.4-0.4v1.8l1.4,2.1l-3.2,10.3
		l1.4,0.7l-0.4,2.1l-1.4,2.5l-0.4,3.2l-2.1,1.4l18,27.2l3.5-0.7l-4.2,1.4l5.3,12.7l-1.1,1.4l2.5,15.6l-1.8,2.5l-3.5,2.8l-3.9,16.6
		l-0.4-0.4l2.1,9.2l0.7,0.4l28.3,66.5l-0.7,1.1l-1.1-0.4l-0.4,1.1l2.8,4.2l-0.4,2.5h0.4l0.7-0.7h1.1v1.4h1.8l0.4,0.7l1.8,0.7
		l2.1-0.4l0.7-0.7l6.4-0.4l0.4-0.7h12.4l0.7-1.1l3.2,0.4l0.4-1.8h4.2l27.2-25.1l3.5-10.6l-0.7,0.7l-1.1-1.4l13.8-8.1l2.5-9.9h-0.7
		l-2.1-11.3l7.1-6.4l0.4,0.7h0.7l2.1-2.1l-0.4-0.7l1.4-0.4l0.4-1.1l14.1-6.7l0.4-1.4l4.2-3.5l0.4-1.4l-0.4-0.4l1.8-2.5v-0.7
		l-0.4-0.4l0.4-0.7h-0.4l1.4-18.4l-0.7-1.1l-1.1-0.4l-1.1-1.8v-2.1l-0.7-0.7v-11.3l0.7-0.7l-0.4-1.4l-2.8-2.5l-0.4-1.4l2.5-7.1
		l1.4-0.7l4.6-9.5l2.1-1.1l1.1-2.1l1.8-0.4l6-8.1h-0.4l30.4-34.6l0,0l7.1-19.8l1.4-0.4l-0.7-0.4l-0.7-6.4l-2.1-1.1l-2.8,2.8
		l-7.1,1.8l-1.4,2.5v-1.8l-3.9-0.4l-3.2,3.2l-7.4-2.5l-3.5,2.5l-3.9-0.7l-4.6-4.6h-3.2l3.5-3.5l-12.4-12.7l-1.4-0.4l-0.4-0.7
		l-2.1-0.4l-1.8-2.5l-0.4,2.1l-6.7-14.5l-0.7-0.4l-0.4-0.7l-4.9-2.5l-2.8-12l-1.4-1.4l-0.7-2.8l-4.9-3.5l-2.1-4.9h1.1l-21.9-35.7
		H230l-0.4,0.7l-1.1-0.4l-4.6,2.5l-20.2-2.1l-0.7-1.1l-8.5-1.8l-0.4-1.4l-6.7-1.4l-6.4,3.9l0.7,4.6l-4.2,3.9l-17-6.7l-0.7-2.1
		l-18-4.6l-0.7-1.8l-1.8-0.4l-2.5-2.1l6.7-7.4l-0.4-1.4l-1.4-1.4l-0.4-2.1l2.8-2.8l-0.4-0.7l-2.5,1.4l-0.7-1.8L138.5,64.3
		L138.5,64.3L138.5,64.3z"/>
	<g>
		<g>
			
				<polyline fill="none" stroke="#FFFFFF" stroke-width="4" stroke-linecap="square" stroke-linejoin="round" stroke-miterlimit="10" points="
				187.3,11 206.2,28 231.3,36.8 244.5,38.6 263.6,59.5 266,64.2 270.7,65.7 263.3,88.9 256.4,105.2 251.7,101.8 242,95.8 
				236.6,96.3 232.2,97.7 230.7,102.1 243.2,124.7 244.5,136 237.6,144.2 236.3,153 245.1,158.6 251.4,161.1 246.4,173.1 			"/>
			
				<polyline fill="none" stroke="#FFFFFF" stroke-width="4" stroke-linecap="square" stroke-linejoin="round" stroke-miterlimit="10" points="
				270.8,251.1 265.8,251.3 259.2,247.5 251.1,243.7 243.9,240.5 238.2,245.9 236.3,256 227.5,250.3 236.3,255.3 226.9,262.3 
				236.3,255.3 242.6,262.3 255.8,266 259.2,271.7 269,279.8 281.3,278.6 259.2,281.1 249.8,287.4 243.2,299.6 234.4,308.7 
				226.9,312.5 225,321.3 216.6,325.3 213.7,329.5 200.6,331 184.8,333.9 169.7,343.3 171,356.8 159.4,360.6 153.9,356.9 152,352.3 
							"/>
			
				<polyline fill="none" stroke="#FFFFFF" stroke-width="4" stroke-linecap="square" stroke-linejoin="round" stroke-miterlimit="10" points="
				171,356.8 172.6,367.8 181.4,367.8 			"/>
			
				<polyline fill="none" stroke="#FFFFFF" stroke-width="4" stroke-linecap="square" stroke-linejoin="round" stroke-miterlimit="10" points="
				267.4,252.3 271.2,256.6 287,265 282.8,267.3 270.2,267.3 273.1,273.9 281.3,278.6 			"/>
		</g>
		<g>
			
				<line fill="none" stroke="#FFFFFF" stroke-width="4" stroke-linecap="round" stroke-linejoin="round" x1="245.7" y1="174" x2="245.7" y2="174"/>
			
				<polyline fill="none" stroke="#FFFFFF" stroke-width="4" stroke-linecap="round" stroke-linejoin="round" stroke-dasharray="0,7.7498" points="
				250.7,180 262.7,194.4 272.1,217.3 274.2,237 272.9,247.2 			"/>
			
				<line fill="none" stroke="#FFFFFF" stroke-width="4" stroke-linecap="round" stroke-linejoin="round" x1="272.4" y1="251" x2="272.4" y2="251"/>
		</g>
		
			<polyline fill="none" stroke="#FFFFFF" stroke-width="4" stroke-linecap="square" stroke-linejoin="round" stroke-miterlimit="10" points="
			251.3,286.4 244.3,281.7 236.9,283 240.1,292.4 234.4,306.9 		"/>
	</g>
</g>
<g id="menu-map-marks">
	<rect id="menu-map-mark1" pointer-events="visible"  x="296.6" y="7.6" width="28.1" height="31.1"/>
</g>
</svg>
