<?xml version="1.0" encoding="utf-8"?>
<!-- Generator: Adobe Illustrator 16.0.0, SVG Export Plug-In . SVG Version: 6.00 Build 0)  -->
<!DOCTYPE svg PUBLIC "-//W3C//DTD SVG 1.1//EN" "http://www.w3.org/Graphics/SVG/1.1/DTD/svg11.dtd">
<svg version="1.1" id="Layer_1" xmlns="http://www.w3.org/2000/svg" xmlns:xlink="http://www.w3.org/1999/xlink" x="0px" y="0px"
	 width="512px" height="202.074px" viewBox="0 0 512 202.074" enable-background="new 0 0 512 202.074" xml:space="preserve">
<g>
	<path fill="none" stroke="#231F20" stroke-width="0.8" stroke-linecap="round" stroke-miterlimit="10" d="M1.72,89.068
		c5.237-9.311,10.855-18.399,16.329-27.571"/>
	<path fill="none" stroke="#231F20" stroke-width="0.8" stroke-linecap="round" stroke-miterlimit="10" d="M1.851,79.063
		c4.369,4.414,8.434,9.141,11.794,14.375"/>
	<path fill="none" stroke="#231F20" stroke-width="0.8" stroke-linecap="round" stroke-miterlimit="10" d="M1.761,65.22
		c4.93,9.661,10.225,19.178,16.576,27.987"/>
	<path fill="none" stroke="#231F20" stroke-width="0.8" stroke-linecap="round" stroke-miterlimit="10" d="M264.529,93.435
		c17.435-4.179,43.646-26.831,45.329-32.138"/>
	<path fill="none" stroke="#231F20" stroke-width="0.8" stroke-linecap="round" stroke-miterlimit="10" d="M10.93,60.922
		c4.034,8.266,9.034,15.791,16.034,19.554c3,2.508,5,7.525,6.197,12.779"/>
	<path fill="none" stroke="#231F20" stroke-width="0.8" stroke-linecap="round" stroke-miterlimit="10" d="M19.392,60.678
		c0.934,3.625,2.578,7.26,3.881,10.9c0.934,2.606,2.166,7.184,3.73,8.639"/>
	<path fill="none" stroke="#231F20" stroke-width="0.8" stroke-linecap="round" stroke-miterlimit="10" d="M26.774,61.208
		c4.036,10.628,9.955,20.016,8.891,32.418"/>
	<path fill="none" stroke="#231F20" stroke-width="0.8" stroke-linecap="round" stroke-miterlimit="10" d="M19.426,84.826
		c1.539,3.021,3.205,5.939,5.007,8.721"/>
	<path fill="none" stroke="#231F20" stroke-width="0.8" stroke-linecap="round" stroke-miterlimit="10" d="M40.55,60.346
		c7.414,11.35,14.414,22.638,23.098,33.117"/>
	<path fill="none" stroke="#231F20" stroke-width="0.8" stroke-linecap="round" stroke-miterlimit="10" d="M60.986,59.771
		c-0.782,4.085,0.59,8.403-0.374,12.522c-1.729,7.394-4.322,13.444-1.989,21.271"/>
	<path fill="none" stroke="#231F20" stroke-width="0.8" stroke-linecap="round" stroke-miterlimit="10" d="M81.421,58.906
		c1.118,6.194,3.607,12.027,6.555,17.145c3.278,5.691,7.32,9.786,7.396,17.343"/>
	<path fill="none" stroke="#231F20" stroke-width="0.8" stroke-linecap="round" stroke-miterlimit="10" d="M118.604,92.958
		c3.36-4.956,5.36-11.228,7.36-17.499c1-5.017-2-10.034-1.375-14.826"/>
	<path fill="none" stroke="#231F20" stroke-width="0.8" stroke-linecap="round" stroke-miterlimit="10" d="M136.987,59.771
		c-3.023,9.417-10.023,16.942-16.023,24.468c-2,2.509-3,6.271-5.463,9.031"/>
	<path fill="none" stroke="#231F20" stroke-width="0.8" stroke-linecap="round" stroke-miterlimit="10" d="M100.021,60.633
		c0.184,5.47-1.721,11.884-2.705,17.058c-0.846,4.449-0.611,10.164-2.094,14.335"/>
	<path fill="none" stroke="#231F20" stroke-width="0.8" stroke-linecap="round" stroke-miterlimit="10" d="M65.808,60.057
		c9.156,9.13,12.156,22.927,20.579,33.5"/>
	<path fill="none" stroke="#231F20" stroke-width="0.8" stroke-linecap="round" stroke-miterlimit="10" d="M52.949,69.273
		c2.695,2.242,6.344,3.124,9.186,5.529c2.818,2.386,5.584,4.836,8.445,7.215c2.563,2.132,5.258,3.16,7.912,4.755
		c1.367,0.818,5.545,3.709,5.686,4.965"/>
	<path fill="none" stroke="#231F20" stroke-width="0.8" stroke-linecap="round" stroke-miterlimit="10" d="M92.478,64.784
		c1.369,1.601,2.729,3.216,4.162,4.726c3.156,3.317,6.695,5.958,10.221,8.602c6.217,4.665,12.488,9.07,17.74,15.435"/>
	<path fill="none" stroke="#231F20" stroke-width="0.8" stroke-linecap="round" stroke-miterlimit="10" d="M76.641,60.086
		c4.323,10.355,8.323,21.644,11.073,33.329"/>
	<path fill="none" stroke="#231F20" stroke-width="0.8" stroke-linecap="round" stroke-miterlimit="10" d="M40.322,85.113
		c0.821,2.73,1.795,5.39,2.955,7.92"/>
	<path fill="none" stroke="#231F20" stroke-width="0.8" stroke-linecap="round" stroke-miterlimit="10" d="M180.218,93.382
		c-0.254-2.872,1.746-5.381,2.746-7.889c1-8.78,0.604-22.177,0.418-25.349"/>
	<path fill="none" stroke="#231F20" stroke-width="0.8" stroke-linecap="round" stroke-miterlimit="10" d="M152.751,93.372
		c10.213-9.133,18.213-20.421,24.648-32.739"/>
	<path fill="none" stroke="#231F20" stroke-width="0.8" stroke-linecap="round" stroke-miterlimit="10" d="M155.894,93.58
		c2.07-11.85,4.084-29.281,6.592-34.3"/>
	<path fill="none" stroke="#231F20" stroke-width="0.8" stroke-linecap="round" stroke-miterlimit="10" d="M143.417,60.346
		c1.133,4.064-3.641,8.892-5.287,11.815c-3.557,6.315-7.268,12.75-7.436,20.767"/>
	<path fill="none" stroke="#231F20" stroke-width="0.8" stroke-linecap="round" stroke-miterlimit="10" d="M129.181,60.057
		c3.783,0.351,6.783,4.113,10.783,5.368c16,8.78,31,20.068,47.075,28.178"/>
	<path fill="none" stroke="#231F20" stroke-width="0.8" stroke-linecap="round" stroke-miterlimit="10" d="M192.325,58.906
		c-0.361,11.536,4.639,22.824,6.742,34.566"/>
	<path fill="none" stroke="#231F20" stroke-width="0.8" stroke-linecap="round" stroke-miterlimit="10" d="M187.044,73.018
		c2.456,6.327,0.394,13.702,0.663,20.382"/>
	<path fill="none" stroke="#231F20" stroke-width="0.8" stroke-linecap="round" stroke-miterlimit="10" d="M152.142,61.208
		c3.68-0.348,8.395,5.762,11.023,8.268c2.51,2.392,4.316,5.218,7.123,7.213c2.422,1.725,4.408,3.823,6.652,5.775
		c3.176,2.762,7.016,3.851,10.791,4.088c2.787,0.175,8.445-1.458,9.887,2.577c-0.004,0.101-0.008,0.201-0.012,0.303"/>
	<path fill="none" stroke="#231F20" stroke-width="0.8" stroke-linecap="round" stroke-miterlimit="10" d="M181.964,64.17
		c9,6.271,19,5.017,29,8.78c2,1.254,5,1.254,7,3.763c8,8.78,16,13.797,26.066,16.897"/>
	<path fill="none" stroke="#231F20" stroke-width="0.8" stroke-linecap="round" stroke-miterlimit="10" d="M201.28,75.034
		c5.684,2.934,6.684,11.714,9.368,18.295"/>
	<path fill="none" stroke="#231F20" stroke-width="0.8" stroke-linecap="round" stroke-miterlimit="10" d="M250.417,61.498
		c3.476,1.043,4.14,10.123,4.63,13.578c0.87,6.134,1.197,12.332,2.604,18.336"/>
	<path fill="none" stroke="#231F20" stroke-width="0.8" stroke-linecap="round" stroke-miterlimit="10" d="M257.766,62.073
		c-0.802,10.877,5.198,20.911,8.185,31.323"/>
	<path fill="none" stroke="#231F20" stroke-width="0.8" stroke-linecap="round" stroke-miterlimit="10" d="M214.827,75.034"/>
	<path fill="none" stroke="#231F20" stroke-width="0.8" stroke-linecap="round" stroke-miterlimit="10" d="M145.024,74.17
		c3.939,5.051,5.939,11.323,4.604,18.83"/>
	<path fill="none" stroke="#231F20" stroke-width="0.8" stroke-linecap="round" stroke-miterlimit="10" d="M235.032,76.474
		c4.932,7.765,12.932,11.527,20.932,11.527c3,0,6,2.509,7.54,5.532"/>
	<path fill="none" stroke="#231F20" stroke-width="0.8" stroke-linecap="round" stroke-miterlimit="10" d="M248.81,73.306
		c4.154,8.424,13.154,8.424,19.154,13.442c1,2.508,3,5.017,4.877,6.877"/>
	<path fill="none" stroke="#231F20" stroke-width="0.8" stroke-linecap="round" stroke-miterlimit="10" d="M276.087,60.951
		c0.447,6.086,3.108,12.269,5.251,17.673c2.626,4.36,3.626,9.377,4.18,14.676"/>
	<path fill="none" stroke="#231F20" stroke-width="0.8" stroke-linecap="round" stroke-miterlimit="10" d="M289.452,60.633
		c0.512,2.283,1.512,4.792,0.512,7.3c-2,8.78,0,16.306-0.032,25.405"/>
	<path fill="none" stroke="#231F20" stroke-width="0.8" stroke-linecap="round" stroke-miterlimit="10" d="M297.257,61.498
		c4.707,8.944-1.293,21.487,0.302,31.876"/>
	<path fill="none" stroke="#231F20" stroke-width="0.8" stroke-linecap="round" stroke-miterlimit="10" d="M330.093,60.346
		c-8.129,13.858-17.129,25.147-28.911,33.292"/>
	<path fill="none" stroke="#231F20" stroke-width="0.8" stroke-linecap="round" stroke-miterlimit="10" d="M303.229,72.442
		c7.734-8.271,18.734-13.289,29.734-8.271c11,6.271,18,17.56,29,22.577c5,1.254,9,5.017,12.536,6.742"/>
	<path fill="none" stroke="#231F20" stroke-width="0.8" stroke-linecap="round" stroke-miterlimit="10" d="M345.083,63.499
		c0.23,1.428,0.383,2.541,0.395,4.047c0.015,2.106,0.14,5.794,0.688,6.912"/>
	<path fill="none" stroke="#231F20" stroke-width="0.8" stroke-linecap="round" stroke-miterlimit="10" d="M336.292,76.187
		c-2.338,6.254-6.083,11.359-8.976,17.181"/>
	<path fill="none" stroke="#231F20" stroke-width="0.8" stroke-linecap="round" stroke-miterlimit="10" d="M351.677,90.874
		c-1.256-2.385-7.27,1.766-8.815,2.667"/>
	<path fill="none" stroke="#231F20" stroke-width="0.8" stroke-linecap="round" stroke-miterlimit="10" d="M409.068,93.632
		c6.896-8.139,14.896-15.665,16.896-28.208c0-1.254,1-1.254,2.404-3.063"/>
	<path fill="none" stroke="#231F20" stroke-width="0.8" stroke-linecap="round" stroke-miterlimit="10" d="M356.497,60.633
		c1.467,3.538,3.467,6.046,5.467,9.809c5,7.525,15,10.034,16.146,23.026"/>
	<path fill="none" stroke="#231F20" stroke-width="0.8" stroke-linecap="round" stroke-miterlimit="10" d="M380.136,61.471
		c1.773,3.748,0.232,11.498-0.453,15.578c-0.504,3.001-2.795,9.196-2.061,11.809"/>
	<path fill="none" stroke="#231F20" stroke-width="0.8" stroke-linecap="round" stroke-miterlimit="10" d="M369.815,60.922
		c-1.017,1.25,0.272,8.01,0.459,10.368c0.262,3.305,1.577,6.14,1.838,9.216"/>
	<path fill="none" stroke="#231F20" stroke-width="0.8" stroke-linecap="round" stroke-miterlimit="10" d="M474.972,61.239
		c6.437,5.537,11.813,12.157,18.048,17.905"/>
	<path fill="none" stroke="#231F20" stroke-width="0.8" stroke-linecap="round" stroke-miterlimit="10" d="M485.999,60.346
		c3.965,10.096,9.965,21.384,4.396,32.896"/>
	<path fill="none" stroke="#231F20" stroke-width="0.8" stroke-linecap="round" stroke-miterlimit="10" d="M433.167,59.87
		c3.24,7.8,7.354,15.074,12.53,21.137c5.267,4.487,11.267,8.25,17.548,12.311"/>
	<path fill="none" stroke="#231F20" stroke-width="0.8" stroke-linecap="round" stroke-miterlimit="10" d="M446.776,60.431
		c2.211,2.385,3.815,7.165,5.471,10.283c1.596,3.011,2.992,6.218,4.584,9.215c2.313,4.345,4.27,10.959,7.357,13.538"/>
	<path fill="none" stroke="#231F20" stroke-width="0.8" stroke-linecap="round" stroke-miterlimit="10" d="M470.388,61.208
		c3.582,3.391,2.068,14.495-0.508,18.089c-1.195,1.672-3.658,3.188-5.18,4.44c-2.644,2.183-2.982,3.316-3.056,7.316"/>
	<path fill="none" stroke="#231F20" stroke-width="0.8" stroke-linecap="round" stroke-miterlimit="10" d="M458.675,60.346
		c2.289,11.35,6.289,21.384,10.497,33.166"/>
	<path fill="none" stroke="#231F20" stroke-width="0.8" stroke-linecap="round" stroke-miterlimit="10" d="M410.771,60.967
		c1.938,1.782,2.877,4.859,4.34,7.17c4.854,7.321,13.854,13.592,14.312,25.22"/>
	<path fill="none" stroke="#231F20" stroke-width="0.8" stroke-linecap="round" stroke-miterlimit="10" d="M383.364,60.633
		c3.6,9.809,7.6,21.097,6.642,32.937"/>
	<path fill="none" stroke="#231F20" stroke-width="0.8" stroke-linecap="round" stroke-miterlimit="10" d="M413.44,61.208
		c-3.301,5.446-8.746,8.399-12.41,13.551"/>
	<path fill="none" stroke="#231F20" stroke-width="0.8" stroke-linecap="round" stroke-miterlimit="10" d="M388.644,61.208
		c-0.029,5.827-3.778,10.445-3.866,16.292c-0.094,6.215,3.874,10.969,6.193,16.019"/>
	<path fill="none" stroke="#231F20" stroke-width="0.8" stroke-linecap="round" stroke-miterlimit="10" d="M421.71,61.787
		c-0.521,3.199-1.145,6.357-2.578,8.914c-1.643,2.926-3.387,5.778-4.985,8.654c-2.363,4.24-4.378,9.755-5.296,14.688"/>
	<path fill="none" stroke="#231F20" stroke-width="0.8" stroke-linecap="round" stroke-miterlimit="10" d="M400.747,93.55
		c1.777-3.872,4.878-6.579,6.494-10.453"/>
	<path fill="none" stroke="#231F20" stroke-width="0.8" stroke-linecap="round" stroke-miterlimit="10" d="M341.573,80.217
		c-1.676,3.322-0.657,9.758,0.006,13.391"/>
	<path fill="none" stroke="#231F20" stroke-width="0.8" stroke-linecap="round" stroke-miterlimit="10" d="M395.532,60.922
		c0.637,2.148,1.156,5.132,1.377,7.488"/>
	<path fill="none" stroke="#231F20" stroke-width="0.8" stroke-linecap="round" stroke-miterlimit="10" d="M440.308,83.673
		c1.406,3.524,3.474,6.559,5.458,9.583"/>
	<path fill="none" stroke="#231F20" stroke-width="0.8" stroke-linecap="round" stroke-miterlimit="10" d="M430.334,93.201
		c-2.15-9.359,4.983-18.061,1.651-26.778"/>
	<path fill="none" stroke="#231F20" stroke-width="0.8" stroke-linecap="round" stroke-miterlimit="10" d="M358.794,72.442
		c1.252,2.982,0.439,6.587,2.24,9.293c1.74,2.613,3.799,3.901,5.338,6.835"/>
</g>
<g>
	<path fill="none" stroke="#231F20" stroke-width="0.8" stroke-linecap="round" stroke-miterlimit="10" d="M11.894,148.152
		c4.293-4.068,9.021-5.25,14.93-6.433c5.909,0,11.818,1.183,17.727,0c35.454-7.09,68.544-13,99.914-28.84"/>
	<path fill="none" stroke="#231F20" stroke-width="0.8" stroke-linecap="round" stroke-miterlimit="10" d="M1.915,140.537
		c1.746,2.488,3.291,5.12,4.553,7.887"/>
	<path fill="none" stroke="#231F20" stroke-width="0.8" stroke-linecap="round" stroke-miterlimit="10" d="M13.131,112.873
		c0.692,2.848,1.875,6.395,0.692,8.758c-2.363,5.908,0,11.818-4.727,17.727c-1.182,2.363,0.729,6.56,0.898,9.8"/>
	<path fill="none" stroke="#231F20" stroke-width="0.8" stroke-linecap="round" stroke-miterlimit="10" d="M16.778,150.051
		c-0.591-4.783-1.772-10.693-2.955-15.42c0-8.273,7.091-14.182,10.865-21.619"/>
	<path fill="none" stroke="#231F20" stroke-width="0.8" stroke-linecap="round" stroke-miterlimit="10" d="M19.51,113.277"/>
	<path fill="none" stroke="#231F20" stroke-width="0.8" stroke-linecap="round" stroke-miterlimit="10" d="M17.999,113.225
		c7.643,10.771,17.097,19.043,26.551,27.314c2.363,2.363,3.545,5.91,5.604,8.154"/>
	<path fill="none" stroke="#231F20" stroke-width="0.8" stroke-linecap="round" stroke-miterlimit="10" d="M52.797,113.178
		c7.116,10.816,7.116,22.635,8.482,34.975"/>
	<path fill="none" stroke="#231F20" stroke-width="0.8" stroke-linecap="round" stroke-miterlimit="10" d="M35.502,110.977
		c-0.06,0.029,4.312,2.146,5.699,2.51c2.516,0.666,4.778,0.927,7.326,1.281c4.997,0.703,9.561,0.949,13.567,4.094
		c4.019,3.15,6.426,7.834,10.371,11.041c3.813,3.103,7.734,5.865,11.82,8.541c1.973,1.293,13.51,8.414,12.815,9.438"/>
	<path fill="none" stroke="#231F20" stroke-width="0.8" stroke-linecap="round" stroke-miterlimit="10" d="M90.86,118.574
		c2.917,1.645,1.138,12.152,1.084,15.209c-0.06,3.449,0.711,9.316,2.442,11.695"/>
	<path fill="none" stroke="#231F20" stroke-width="0.8" stroke-linecap="round" stroke-miterlimit="10" d="M83.261,138.111
		c0.655-5.521,0.7-9.387,4.137-14.037c1.381-1.869,2.136-3.588,3.117-5.629c1.009-2.098,2.987-3.674,4.642-5.654"/>
	<path fill="none" stroke="#231F20" stroke-width="0.8" stroke-linecap="round" stroke-miterlimit="10" d="M31.16,147.338
		c3.936-13.889,15.753-23.344,24.609-34.563"/>
	<path fill="none" stroke="#231F20" stroke-width="0.8" stroke-linecap="round" stroke-miterlimit="10" d="M55.439,132.307
		c5.585-5.85,11.059-12.733,15.725-19.348"/>
	<path fill="none" stroke="#231F20" stroke-width="0.8" stroke-linecap="round" stroke-miterlimit="10" d="M166.753,112.834
		c16.183,5.42,35.957,16.191,34.549,36.133"/>
	<path fill="none" stroke="#231F20" stroke-width="0.8" stroke-linecap="round" stroke-miterlimit="10" d="M133.001,113.375
		c0.184,11.801-1.645,31.334-5.746,35.008"/>
	<path fill="none" stroke="#231F20" stroke-width="0.8" stroke-linecap="round" stroke-miterlimit="10" d="M142.418,127.531
		c1.844,3.678-7.501,8.742-9.953,10.33"/>
	<path fill="none" stroke="#231F20" stroke-width="0.8" stroke-linecap="round" stroke-miterlimit="10" d="M114.447,113.084
		c-0.089,8.963,7.008,13,10.332,20.416"/>
	<path fill="none" stroke="#231F20" stroke-width="0.8" stroke-linecap="round" stroke-miterlimit="10" d="M126.948,113.162
		c3.331,7.721-0.005,15.227-3.134,22.318c-1.274,2.883-4.535,9.108-2.834,12.129"/>
	<path fill="none" stroke="#231F20" stroke-width="0.8" stroke-linecap="round" stroke-miterlimit="10" d="M198.996,113.033
		c5.098,14.506,21.643,13.324,33.461,19.234c3.544,2.362,7.09,4.727,10.635,7.09c3.545,2.362,5.618,7.006,7.825,8.752"/>
	<path fill="none" stroke="#231F20" stroke-width="0.8" stroke-linecap="round" stroke-miterlimit="10" d="M159.243,141.367
		c0-0.094,0-0.982,0-0.578c0.016,2.66,0.941,5.004,0.875,7.615"/>
	<path fill="none" stroke="#231F20" stroke-width="0.8" stroke-linecap="round" stroke-miterlimit="10" d="M173.648,112.924
		c0.237,1.074,0.52,2.135,0.856,3.182"/>
	<path fill="none" stroke="#231F20" stroke-width="0.8" stroke-linecap="round" stroke-miterlimit="10" d="M184.206,120.201
		c-0.279,2.063,1.824,5.033,2.433,7.07c0.686,2.268,1.147,4.426,1.629,6.776c0.889,4.31,0.967,9.978,1.094,13.832"/>
	<path fill="none" stroke="#231F20" stroke-width="0.8" stroke-linecap="round" stroke-miterlimit="10" d="M208.651,112.859
		c2.533,1.68,4.896,4.045,7.26,6.408c2.364,3.545,3.545,8.271,5.909,11.817c5.909,7.09,15.363,9.453,22.354,16.795"/>
	<path fill="none" stroke="#231F20" stroke-width="0.8" stroke-linecap="round" stroke-miterlimit="10" d="M209.446,113.451
		c-4.171,10.543-7.716,21.18-7.329,32.258"/>
	<path fill="none" stroke="#231F20" stroke-width="0.8" stroke-linecap="round" stroke-miterlimit="10" d="M107.142,134.041
		c0-0.936,0.035,2.074,0.005,2.652c-0.076,1.518-0.453,3.08-0.293,4.674c0.203,1.975,0.568,5.047,1.644,6.514"/>
	<path fill="none" stroke="#231F20" stroke-width="0.8" stroke-linecap="round" stroke-miterlimit="10" d="M252.844,112.887
		c12.702,7.563,17.43,22.926,24.165,34.994"/>
	<path fill="none" stroke="#231F20" stroke-width="0.8" stroke-linecap="round" stroke-miterlimit="10" d="M242.487,112.936
		c1.247,6.359,1.999,12.892,2.267,19.369c0.155,3.779,0.459,9.137,3.22,12.049"/>
	<path fill="none" stroke="#231F20" stroke-width="0.8" stroke-linecap="round" stroke-miterlimit="10" d="M234.023,113.313
		c-6.294,11.863-11.021,23.683-18.068,34.84"/>
	<path fill="none" stroke="#231F20" stroke-width="0.8" stroke-linecap="round" stroke-miterlimit="10" d="M343.587,113.381
		c-1.224,11.795-0.042,23.613,6.419,34.229"/>
	<path fill="none" stroke="#231F20" stroke-width="0.8" stroke-linecap="round" stroke-miterlimit="10" d="M277.964,113.375
		c1.108,5.836,2.761,12.461,1.992,18.396c-0.655,5.049-2.664,11.914,0.849,16.414"/>
	<path fill="none" stroke="#231F20" stroke-width="0.8" stroke-linecap="round" stroke-miterlimit="10" d="M246.347,118.303
		c1.833,3.295,5.907,6.725,8.963,8.953c2.846,2.078,6.158,1.803,8.139,5.158c1.558,2.641,0.787,4.979,0.808,7.869
		c0.019,2.639,1.099,5.018,1.087,7.639"/>
	<path fill="none" stroke="#231F20" stroke-width="0.8" stroke-linecap="round" stroke-miterlimit="10" d="M247.974,113.689
		c2.154,4.194,7.576,5.787,10.512,9.278c2.479,2.959,5.3,6.068,4.94,10.179"/>
	<path fill="none" stroke="#231F20" stroke-width="0.8" stroke-linecap="round" stroke-miterlimit="10" d="M279.157,112.986
		c-7.702,3.918-10.065,13.371-15.345,20.266"/>
	<path fill="none" stroke="#231F20" stroke-width="0.8" stroke-linecap="round" stroke-miterlimit="10" d="M268.193,113.01
		c0.897,7.439,5.625,10.984,12.716,13.348c16.546,4.729,34.271,7.093,45.216,21.252"/>
	<path fill="none" stroke="#231F20" stroke-width="0.8" stroke-linecap="round" stroke-miterlimit="10" d="M295.461,148.152
		c0.813-4.068,4.357-7.613,7.903-9.978c15.362-9.455,28.361-20.09,44.357-25.405"/>
	<path fill="none" stroke="#231F20" stroke-width="0.8" stroke-linecap="round" stroke-miterlimit="10" d="M400.749,148.967
		c8.606-11.234,22.838-14.097,36.145-15.429c6.83-0.685,13.701-1,20.503-1.957c4.496-0.633,8.877-1.929,13.276-3.029
		c4.136-1.034,7.697-2.96,11.711-4.349"/>
	<path fill="none" stroke="#231F20" stroke-width="0.8" stroke-linecap="round" stroke-miterlimit="10" d="M466.429,113.174
		c-1.157,12.002-3.521,22.639-1.099,34.979"/>
	<path fill="none" stroke="#231F20" stroke-width="0.8" stroke-linecap="round" stroke-miterlimit="10" d="M454.87,112.883
		c2.728,4.729,6.728,7.369,10.189,11.391"/>
	<path fill="none" stroke="#231F20" stroke-width="0.8" stroke-linecap="round" stroke-miterlimit="10" d="M406.406,113.143
		c3.17,7.308,9.965,13.25,15.89,18.377c4.402,3.81,12.188,9.318,11.015,16.09"/>
	<path fill="none" stroke="#231F20" stroke-width="0.8" stroke-linecap="round" stroke-miterlimit="10" d="M389.494,113.035
		c7.23,10.959,8.414,23.959,10.981,35.658"/>
	<path fill="none" stroke="#231F20" stroke-width="0.8" stroke-linecap="round" stroke-miterlimit="10" d="M377.621,112.875
		c4.924,6.393,10.832,7.574,16.342,9.227"/>
	<path fill="none" stroke="#231F20" stroke-width="0.8" stroke-linecap="round" stroke-miterlimit="10" d="M355.326,112.971
		c2.399,12.205-5.821,29.068-4.469,35.371"/>
	<path fill="none" stroke="#231F20" stroke-width="0.8" stroke-linecap="round" stroke-miterlimit="10" d="M349.869,113.314
		c0.767,9.498-2.778,20.135,1.491,28.596"/>
	<path fill="none" stroke="#231F20" stroke-width="0.8" stroke-linecap="round" stroke-miterlimit="10" d="M360.545,113.203
		c-1.05,5.902-4.951,10.883-5.403,16.943"/>
	<path fill="none" stroke="#231F20" stroke-width="0.8" stroke-linecap="round" stroke-miterlimit="10" d="M325.167,112.949
		c0.665,3.895,0.042,7.193-0.191,11.023"/>
	<path fill="none" stroke="#231F20" stroke-width="0.8" stroke-linecap="round" stroke-miterlimit="10" d="M288.135,127.801
		c-0.084-3.162,2.575-4.977,4.865-6.615c2.93-2.096,5.364-4.221,6.283-7.879"/>
	<path fill="none" stroke="#231F20" stroke-width="0.8" stroke-linecap="round" stroke-miterlimit="10" d="M282.71,126.986
		c1.004-1.416,1.772-5.01,3.587-6.994c0.852-0.934,2.61-1.635,3.194-2.754c0.381-0.734,0.257-4.006,0.272-3.275"/>
	<path fill="none" stroke="#231F20" stroke-width="0.8" stroke-linecap="round" stroke-miterlimit="10" d="M316.899,138.654
		c-1.32-2.568-0.235-5.529,0.271-8.682c0.479-2.994-0.614-5.58-2.173-8.142"/>
	<path fill="none" stroke="#231F20" stroke-width="0.8" stroke-linecap="round" stroke-miterlimit="10" d="M326.667,147.881
		c-1.378-2.506,1.584-4.416,2.918-6.24c1.618-2.221,2.228-3.762,2.239-6.514"/>
	<path fill="none" stroke="#231F20" stroke-width="0.8" stroke-linecap="round" stroke-miterlimit="10" d="M360.316,148.152
		c0.298-2.959,4.657-6.295,3.255-9.228"/>
	<path fill="none" stroke="#231F20" stroke-width="0.8" stroke-linecap="round" stroke-miterlimit="10" d="M369.542,147.338
		c0.968-1.109,1.955-2.359,2.442-3.797"/>
	<path fill="none" stroke="#231F20" stroke-width="0.8" stroke-linecap="round" stroke-miterlimit="10" d="M431.896,113.275
		c2.995,7.565,4.185,14.453,11.104,19.555c4.235,3.123,13.436,8.188,9.034,14.779"/>
	<path fill="none" stroke="#231F20" stroke-width="0.8" stroke-linecap="round" stroke-miterlimit="10" d="M451.816,113.354
		c-5.455,7.097-4.273,17.732-0.595,25.572"/>
	<path fill="none" stroke="#231F20" stroke-width="0.8" stroke-linecap="round" stroke-miterlimit="10" d="M446.957,112.795
		c3.238,1.426,7.017,2.475,9.962,4.422"/>
	<path fill="none" stroke="#231F20" stroke-width="0.8" stroke-linecap="round" stroke-miterlimit="10" d="M480.835,113.24
		c-0.832,3.611,0.222,7.136,1.764,10.396"/>
	<path fill="none" stroke="#231F20" stroke-width="0.8" stroke-linecap="round" stroke-miterlimit="10" d="M398.307,137.568
		c0,0.244,0,0.49,0,0.733c-0.396-4.44,5.203-6.346,7.793-8.899c4.057-4.004,6.253-10.795,4.846-16.355"/>
	<path fill="none" stroke="#231F20" stroke-width="0.8" stroke-linecap="round" stroke-miterlimit="10" d="M424.288,112.877
		c1.983,6.391,4.347,11.117,5.528,17.025c1.182,7.092-3.546,11.817-3.834,18.521"/>
	<path fill="none" stroke="#231F20" stroke-width="0.8" stroke-linecap="round" stroke-miterlimit="10" d="M440.64,115.318
		c1.071,4.5,1.083,11.824,1.083,17.096c0,2.834-0.86,5.053,0.01,7.869c0.799,2.598,2.365,5.184,3.437,7.695"/>
	<path fill="none" stroke="#231F20" stroke-width="0.8" stroke-linecap="round" stroke-miterlimit="10" d="M459.087,112.928
		c-0.249,2.422-0.303,5.742,1.632,7.547"/>
	<path fill="none" stroke="#231F20" stroke-width="0.8" stroke-linecap="round" stroke-miterlimit="10" d="M474.829,133.227
		c-1.007,5.707-2.073,9.623-8.472,10.797c-5.234,0.957-9.166,0.447-13.955,3.058"/>
	<path fill="none" stroke="#231F20" stroke-width="0.8" stroke-linecap="round" stroke-miterlimit="10" d="M87.333,113.418
		c2.292-1.652,6.149-1.355,8.411-1.355"/>
</g>
<g>
	<path fill="none" stroke="#231F20" stroke-width="0.8" stroke-linecap="round" stroke-miterlimit="10" d="M74.201,3.8
		c21.292,5.309,41.382,17.127,54.324,34.743"/>
	<path fill="none" stroke="#231F20" stroke-width="0.8" stroke-linecap="round" stroke-miterlimit="10" d="M14.228,4.029
		c5.837,6.068,10.795,13.025,17.411,18.313c6.167,4.931,13.756,7.914,19.413,13.511"/>
	<path fill="none" stroke="#231F20" stroke-width="0.8" stroke-linecap="round" stroke-miterlimit="10" d="M2.601,19.745
		c3.203,5.501,6.823,9.752,12.743,12.326c5.055,2.197,10.905,3.253,15.131,7.015"/>
	<path fill="none" stroke="#231F20" stroke-width="0.8" stroke-linecap="round" stroke-miterlimit="10" d="M40.38,4.308
		C45.857,16.2,52.948,26.836,56.345,39.266"/>
	<path fill="none" stroke="#231F20" stroke-width="0.8" stroke-linecap="round" stroke-miterlimit="10" d="M61.048,39.266
		c-0.728-3.114,4.527-7.13,6.553-8.813c2.296-1.909,5.828-6.144,5.206-9.097"/>
	<path fill="none" stroke="#231F20" stroke-width="0.8" stroke-linecap="round" stroke-miterlimit="10" d="M67.922,20.092
		c-0.532,4.57,2.854,8.72,6.161,11.356c1.345,1.073,2.632,2.121,3.79,3.476c0.689,0.808,1.207,1.657,1.765,2.543
		c0.284,0.453,1.316,2.198,1.129,1.618"/>
	<path fill="none" stroke="#231F20" stroke-width="0.8" stroke-linecap="round" stroke-miterlimit="10" d="M128.706,3.875
		c-1.305,9.962,2.241,18.235,4.604,27.689c0,2.364,0,4.728,0.28,7.612"/>
	<path fill="none" stroke="#231F20" stroke-width="0.8" stroke-linecap="round" stroke-miterlimit="10" d="M138.808,4.165
		c6.321,8.49,14.593,15.581,24.047,20.308c15.364,7.091,33.091,3.545,47.53,14.433"/>
	<path fill="none" stroke="#231F20" stroke-width="0.8" stroke-linecap="round" stroke-miterlimit="10" d="M86.241,3.858
		c0.26,1.235,0.557,2.488,1.219,3.571"/>
	<path fill="none" stroke="#231F20" stroke-width="0.8" stroke-linecap="round" stroke-miterlimit="10" d="M48.656,7.699
		c9.024,2.862,16.95,1.166,26.05,0.814c9.036-0.348,15.33,3.626,21.159,10.313c3.347,3.836,7.433,6.968,10.657,10.846
		c2.405,2.892,4.264,7.116,6.717,9.502"/>
	<path fill="none" stroke="#231F20" stroke-width="0.8" stroke-linecap="round" stroke-miterlimit="10" d="M102.384,41.076
		c2.612-15.306,9.959-29.547,23.894-37.153"/>
	<path fill="none" stroke="#231F20" stroke-width="0.8" stroke-linecap="round" stroke-miterlimit="10" d="M195.896,3.994
		c9.503,8.661,18.958,16.933,29.594,24.024c9.454,5.909,22.454,3.545,28.583,11.43"/>
	<path fill="none" stroke="#231F20" stroke-width="0.8" stroke-linecap="round" stroke-miterlimit="10" d="M3.961,11.35
		c4.752,3.624,8.916,7.219,12.148,12.308c1.511,2.379,2.826,4.879,4.041,7.42c1.129,2.362,3.134,5.462,3.27,8.098"/>
	<path fill="none" stroke="#231F20" stroke-width="0.8" stroke-linecap="round" stroke-miterlimit="10" d="M34.027,31.329
		c3.561,0.789,6.833,2.548,9.986,4.325"/>
	<path fill="none" stroke="#231F20" stroke-width="0.8" stroke-linecap="round" stroke-miterlimit="10" d="M116.492,3.985
		c3.815,3.841,11.798,4.958,12.486,11.313"/>
	<path fill="none" stroke="#231F20" stroke-width="0.8" stroke-linecap="round" stroke-miterlimit="10" d="M135.219,5.529
		c-3.426,1.313-7.315,2.195-10.245,4.679c-2.851,2.419-4.921,5.699-7.054,8.677c-4.445,6.2-8.532,12.575-13.298,18.445
		c-0.529,0.653-0.95,1.283-1.585,1.874"/>
	<path fill="none" stroke="#231F20" stroke-width="0.8" stroke-linecap="round" stroke-miterlimit="10" d="M124.636,21.267
		c-1.269-0.141-2.36,2.276-3.052,3.456c-1.2,2.042-2.025,3.176-4.009,4.48c-1.6,1.053-3.153,1.533-4.878,2.105
		c-0.806,0.268-1.697,0.492-2.45,0.806c-0.971,0.406-1.576,0.591-1.349,0.822"/>
	<path fill="none" stroke="#231F20" stroke-width="0.8" stroke-linecap="round" stroke-miterlimit="10" d="M214.702,8.612
		c8.227,6.471,16.16,15.509,25.85,19.767c8.232,3.618,18.166,3.35,24.376,10.797"/>
	<path fill="none" stroke="#231F20" stroke-width="0.8" stroke-linecap="round" stroke-miterlimit="10" d="M257.389,4.202
		c2.375,3.726,7.103,6.089,10.646,9.634c10.637,7.091,22.455,13,27.283,24.797"/>
	<path fill="none" stroke="#231F20" stroke-width="0.8" stroke-linecap="round" stroke-miterlimit="10" d="M156.308,10.746
		c0.423,9.373,0.35,19.781,5.775,27.888"/>
	<path fill="none" stroke="#231F20" stroke-width="0.8" stroke-linecap="round" stroke-miterlimit="10" d="M170.021,3.844
		c1.175,3.924,1.133,7.763-1.125,11.292c-1.849,2.89-7.167,6.444-5.388,10.438"/>
	<path fill="none" stroke="#231F20" stroke-width="0.8" stroke-linecap="round" stroke-miterlimit="10" d="M182.395,3.831
		c1.733,8.824,6.46,15.915,12.369,23.006c3.545,2.364,8.273,3.545,9.651,8.27"/>
	<path fill="none" stroke="#231F20" stroke-width="0.8" stroke-linecap="round" stroke-miterlimit="10" d="M200.616,17.197
		c6.081,6.327,7.696,13.711,10.311,21.437"/>
	<path fill="none" stroke="#231F20" stroke-width="0.8" stroke-linecap="round" stroke-miterlimit="10" d="M138.271,24.048
		c1.417-1.14,2.455-1.772,3.385-3.4c0.424-0.741,0.75-1.627,1.093-2.433c0.177-0.416,0.918-2.498,0.61-1.561"/>
	<path fill="none" stroke="#231F20" stroke-width="0.8" stroke-linecap="round" stroke-miterlimit="10" d="M221.979,4.165
		c1.518,5.367,2.417,10.735,8.237,12.871c7.741,2.844,12.686,7.412,18.702,12.915"/>
	<path fill="none" stroke="#231F20" stroke-width="0.8" stroke-linecap="round" stroke-miterlimit="10" d="M238.063,10.956
		c5.038,2.356,7.481,10.145,11.729,13.764c4.489,3.827,9.089,6.334,12.149,11.472"/>
	<path fill="none" stroke="#231F20" stroke-width="0.8" stroke-linecap="round" stroke-miterlimit="10" d="M244.922,4.138
		c1.547,6.8,1.444,13.676-1.833,19.975c-1.969,3.785-7.022,10.161-5.841,14.793"/>
	<path fill="none" stroke="#231F20" stroke-width="0.8" stroke-linecap="round" stroke-miterlimit="10" d="M302.18,3.791
		c7.22,6.5,13.128,12.409,19.037,19.5c9.454,8.272,20.09,11.818,30.816,15.885"/>
	<path fill="none" stroke="#231F20" stroke-width="0.8" stroke-linecap="round" stroke-miterlimit="10" d="M286.908,38.634
		c3.582-16.524,20.127-24.797,31.793-34.787"/>
	<path fill="none" stroke="#231F20" stroke-width="0.8" stroke-linecap="round" stroke-miterlimit="10" d="M141.833,4.073
		c0.237,1.851,0.705,3.892,2.069,5.253"/>
	<path fill="none" stroke="#231F20" stroke-width="0.8" stroke-linecap="round" stroke-miterlimit="10" d="M257.059,13.125
		c4.354,2.482,4.176,9.735,6.348,13.743c1.938,3.576,6.193,5.811,9.189,8.427"/>
	<path fill="none" stroke="#231F20" stroke-width="0.8" stroke-linecap="round" stroke-miterlimit="10" d="M284.088,4.521
		c0.492,6.953,0.492,15.225,2.276,22.173"/>
	<path fill="none" stroke="#231F20" stroke-width="0.8" stroke-linecap="round" stroke-miterlimit="10" d="M279.58,9.056
		c-2.102,1.159,0.053,11.483,1.629,13.568"/>
	<path fill="none" stroke="#231F20" stroke-width="0.8" stroke-linecap="round" stroke-miterlimit="10" d="M273.34,25.338
		c0.001,3.16,0.92,6.224,0.896,9.391"/>
	<path fill="none" stroke="#231F20" stroke-width="0.8" stroke-linecap="round" stroke-miterlimit="10" d="M263.57,9.056
		c0.072-1.708,0.008-3.453,0.498-5.105"/>
	<path fill="none" stroke="#231F20" stroke-width="0.8" stroke-linecap="round" stroke-miterlimit="10" d="M327.381,4.151
		c4.993,4.547,9.471,10.805,12.022,17.074c2.019,4.956,2.931,11.788,7.744,14.966"/>
	<path fill="none" stroke="#231F20" stroke-width="0.8" stroke-linecap="round" stroke-miterlimit="10" d="M301.018,22.082
		c0.311,5.927,13.564,9.863,12.754,16.01"/>
	<path fill="none" stroke="#231F20" stroke-width="0.8" stroke-linecap="round" stroke-miterlimit="10" d="M308.344,19.91
		c0.361-0.397,4.224,0.274,5.699,0.272c2.525-0.007,3.766-0.027,5.428,1.9"/>
	<path fill="none" stroke="#231F20" stroke-width="0.8" stroke-linecap="round" stroke-miterlimit="10" d="M314.314,25.608
		c0.063,2.177,0.787,10.226-0.814,10.583"/>
	<path fill="none" stroke="#231F20" stroke-width="0.8" stroke-linecap="round" stroke-miterlimit="10" d="M325.711,7.971
		c2.758-1.576,8.608,1.937,11.111,3.324c4.03,2.232,7.68,5.207,11.153,8.289c3.24,2.878,5.889,6.216,9.205,9.004
		c3.044,2.558,6.231,4.681,9.295,7.271c1.527,1.294,3.81,2.001,5.095,3.316"/>
	<path fill="none" stroke="#231F20" stroke-width="0.8" stroke-linecap="round" stroke-miterlimit="10" d="M362.602,18.515
		c1.062,3.536,0.877,7.225,2.457,10.62c1.416,3.042,3.097,5.817,5.154,8.414"/>
	<path fill="none" stroke="#231F20" stroke-width="0.8" stroke-linecap="round" stroke-miterlimit="10" d="M372.114,27.508
		c5.177-3.384,11.786-5.182,16.497-9.286c3.18-2.77,9.655-7.384,9.885-11.83"/>
	<path fill="none" stroke="#231F20" stroke-width="0.8" stroke-linecap="round" stroke-miterlimit="10" d="M404.072,4.031
		c10.506,9.805,17.598,23.987,27.739,35.145"/>
	<path fill="none" stroke="#231F20" stroke-width="0.8" stroke-linecap="round" stroke-miterlimit="10" d="M415.713,4.463
		c-1.77,11.656-1.923,22.916,0.633,34.443"/>
	<path fill="none" stroke="#231F20" stroke-width="0.8" stroke-linecap="round" stroke-miterlimit="10" d="M408.748,15.84
		c-0.375,3.698-0.366,6.244,2.237,9.159c3.897,4.365,10.82,7.67,11.646,13.858"/>
	<path fill="none" stroke="#231F20" stroke-width="0.8" stroke-linecap="round" stroke-miterlimit="10" d="M393.977,4.273
		c3.461,6.823,4.745,14.681,5.398,22.201c0.225,2.581,0.313,13.154,3.672,12.974"/>
	<path fill="none" stroke="#231F20" stroke-width="0.8" stroke-linecap="round" stroke-miterlimit="10" d="M374.402,3.98
		c9.448,2.765,18.903,3.947,28.357,6.311c5.909,1.182,12.573,9.162,11.184,14.463"/>
	<path fill="none" stroke="#231F20" stroke-width="0.8" stroke-linecap="round" stroke-miterlimit="10" d="M397.344,3.909
		c0.457,0.653,1.501,0.912,1.604,0.475"/>
	<path fill="none" stroke="#231F20" stroke-width="0.8" stroke-linecap="round" stroke-miterlimit="10" d="M450.466,4.013
		C462,14,476,20,490.513,22.912"/>
	<path fill="none" stroke="#231F20" stroke-width="0.8" stroke-linecap="round" stroke-miterlimit="10" d="M473.594,3.953
		C479,10,484,15,488.508,19.671"/>
	<path fill="none" stroke="#231F20" stroke-width="0.8" stroke-linecap="round" stroke-miterlimit="10" d="M421.746,10.113
		c5.762,1.669,7.332,6.839,11.768,10c3.981,2.836,8.506,0.988,12.953,2.022c4.629,1.075,9.098,3.868,12.553,7.206
		c3.036,2.927,5.998,7.7,9.981,9.496c0.269,0.122,0.387,0.399,0.617,0.563c-0.071,0.157-0.073-0.295-0.087-0.494"/>
	<path fill="none" stroke="#231F20" stroke-width="0.8" stroke-linecap="round" stroke-miterlimit="10" d="M440.496,4.714
		c0.731-0.607,10.072,9.492,11.471,11.336c2.486,3.285,4.303,8.09,5.353,12"/>
	<path fill="none" stroke="#231F20" stroke-width="0.8" stroke-linecap="round" stroke-miterlimit="10" d="M431.89,4.237
		c0.481,2.387-0.028,17.203,3.994,16.215"/>
	<path fill="none" stroke="#231F20" stroke-width="0.8" stroke-linecap="round" stroke-miterlimit="10" d="M483.389,5.33
		c0.982,3.721,2.766,7.173,5.074,10.242"/>
	<path fill="none" stroke="#231F20" stroke-width="0.8" stroke-linecap="round" stroke-miterlimit="10" d="M497.586,4.084
		c1.949,0.945,4.675,1.571,5.625,3.707"/>
</g>
<g>
	<path fill="none" stroke="#231F20" stroke-width="0.8" stroke-linecap="round" stroke-miterlimit="10" d="M4.946,168.475
		c2.477,11.941,6.653,24.062,13.757,32.842"/>
	<path fill="none" stroke="#231F20" stroke-width="0.8" stroke-linecap="round" stroke-miterlimit="10" d="M2.322,192.747
		c2.803,3.351,6.005,6.394,9.649,8.817"/>
	<path fill="none" stroke="#231F20" stroke-width="0.8" stroke-linecap="round" stroke-miterlimit="10" d="M3.292,183.01
		C13,186,22,193,28.089,201.493"/>
	<path fill="none" stroke="#231F20" stroke-width="0.8" stroke-linecap="round" stroke-miterlimit="10" d="M17.651,168.859
		c0.241,3.088,1.009,6.313,1.68,9.211c0.793,3.424,1.906,5.172,3.562,8.02c1.401,2.408,1.535,5.016,2.222,7.727
		c0.601,2.379,1.518,4.709,2.606,6.765c0.262,0.496,0.55,0.981,0.799,1.494"/>
	<path fill="none" stroke="#231F20" stroke-width="0.8" stroke-linecap="round" stroke-miterlimit="10" d="M19.794,168.09
		c6.217,2.344,10.141,8.227,12.335,15.617c1.025,3.45,1.889,7.077,3.948,9.826c2.399,3.201,5.794,5.645,8.758,7.928"/>
	<path fill="none" stroke="#231F20" stroke-width="0.8" stroke-linecap="round" stroke-miterlimit="10" d="M49.031,168.475
		c5.873,12.604,13.873,22.639,21.54,32.986"/>
	<path fill="none" stroke="#231F20" stroke-width="0.8" stroke-linecap="round" stroke-miterlimit="10" d="M33.417,168.665
		c2.365,0.716,4.918,0.76,7.187,1.965c2.172,1.153,4.274,3.196,6.124,5.093c3.747,3.844,4.521,10.535,8.614,14.199
		c1.636,1.463,3.512,2.482,5.357,3.09c1.682,0.555,3.622-0.16,4.864,1.768"/>
	<path fill="none" stroke="#231F20" stroke-width="0.8" stroke-linecap="round" stroke-miterlimit="10" d="M43.674,169.24
		c2.615,0.068,4.685,2.004,7.042,3.223c1.195,0.617,2.484,0.813,3.674,1.436c1.345,0.705,2.545,1.035,3.98,1.308
		c5.034,0.942,10.116-0.401,15.001-0.396c5.2,0.008,10.265,0,15.461,0c4.791,0,10.025,0.069,14.695,1.547
		c3.666,1.16,7.565,1.42,11.327,2.305c3.033,0.713,7.608,1.549,9.938,3.824"/>
	<path fill="none" stroke="#231F20" stroke-width="0.8" stroke-linecap="round" stroke-miterlimit="10" d="M32.806,199.578
		c0.543-0.404,1.785,1.281,2.563,2.016"/>
	<path fill="none" stroke="#231F20" stroke-width="0.8" stroke-linecap="round" stroke-miterlimit="10" d="M121.743,167.898
		c-0.505,5.592,2.996,10.379,5.163,14.808c2.835,5.794,3.158,12.075,3.248,18.767"/>
	<path fill="none" stroke="#231F20" stroke-width="0.8" stroke-linecap="round" stroke-miterlimit="10" d="M87.99,168.475
		c1.915,1.314,2.915,2.569,3.915,3.824c4,7.525,6,18.813,13,21.322c8,2.508,17-1.254,23.347,8.064"/>
	<path fill="none" stroke="#231F20" stroke-width="0.8" stroke-linecap="round" stroke-miterlimit="10" d="M82.249,189.785
		c1.742,3.413,1.649,8.053,2.838,11.803"/>
	<path fill="none" stroke="#231F20" stroke-width="0.8" stroke-linecap="round" stroke-miterlimit="10" d="M115.772,173.37
		c3.132,1.437,6.132,2.69,9.132,5.2c16,7.524,34,10.033,47.782,22.787"/>
	<path fill="none" stroke="#231F20" stroke-width="0.8" stroke-linecap="round" stroke-miterlimit="10" d="M102.914,181.434
		c3.701-4.145,7.901,17.912,8.342,19.746"/>
	<path fill="none" stroke="#231F20" stroke-width="0.8" stroke-linecap="round" stroke-miterlimit="10" d="M104.045,201.473
		c0.674-1.16,1.297-2.369,1.854-3.623"/>
	<path fill="none" stroke="#231F20" stroke-width="0.8" stroke-linecap="round" stroke-miterlimit="10" d="M81.331,178.842
		c2.345-1.471,3.243,6.129,3.663,7.775c0.955,3.75,2.416,5.898,5.017,7.85c2.227,1.668,4.914,2.502,7.623,1.949
		c1.817-0.371,6.357-3.428,7.348-2.311"/>
	<path fill="none" stroke="#231F20" stroke-width="0.8" stroke-linecap="round" stroke-miterlimit="10" d="M141.03,168.761
		c0.874,12.317-1.126,24.86-9.755,32.841"/>
	<path fill="none" stroke="#231F20" stroke-width="0.8" stroke-linecap="round" stroke-miterlimit="10" d="M166.288,169.05
		c2.237-2.899,15.899,29.31,17.519,32.146"/>
	<path fill="none" stroke="#231F20" stroke-width="0.8" stroke-linecap="round" stroke-miterlimit="10" d="M180.753,168.761
		c2.151-0.226,4.151,1.028,5.151,2.283c7,10.034,11,23.831,19.84,30.536"/>
	<path fill="none" stroke="#231F20" stroke-width="0.8" stroke-linecap="round" stroke-miterlimit="10" d="M198.434,168.761
		c3.471,11.063-0.529,27.368,11.465,32.864"/>
	<path fill="none" stroke="#231F20" stroke-width="0.8" stroke-linecap="round" stroke-miterlimit="10" d="M206.47,178.555
		c2.434,8.795,7.434,17.574,13.129,23.033"/>
	<path fill="none" stroke="#231F20" stroke-width="0.8" stroke-linecap="round" stroke-miterlimit="10" d="M152.041,168.784
		c7.244,10.694-1,21.601-1.896,32.796"/>
	<path fill="none" stroke="#231F20" stroke-width="0.8" stroke-linecap="round" stroke-miterlimit="10" d="M163.992,177.689
		c0.781,3.512,1.896,7,3.152,10.432c1.219,3.333,1.635,8.18,2.818,10.593"/>
	<path fill="none" stroke="#231F20" stroke-width="0.8" stroke-linecap="round" stroke-miterlimit="10" d="M224.609,169.625
		c-2.118,10.712,4.101,20.627,3.492,31.434"/>
	<path fill="none" stroke="#231F20" stroke-width="0.8" stroke-linecap="round" stroke-miterlimit="10" d="M215.712,170.762
		c0.445,0.812,0.858,1.776,1.269,2.624c0.795,1.64,1.557,3.114,2.634,4.521c1.519,1.981,4.205,3.726,5.224,5.256"/>
	<path fill="none" stroke="#231F20" stroke-width="0.8" stroke-linecap="round" stroke-miterlimit="10" d="M229.431,168.761
		c3.765,7.197,9.397,10.659,14.891,15.644c5.462,4.955,9.439,10.865,13.98,17.041"/>
	<path fill="none" stroke="#231F20" stroke-width="0.8" stroke-linecap="round" stroke-miterlimit="10" d="M309.22,201.471
		c5.271-7.791,10.906-15.396,18.095-20.41c5.854-4.086,14.557-5.656,18.989-12.3"/>
	<path fill="none" stroke="#231F20" stroke-width="0.8" stroke-linecap="round" stroke-miterlimit="10" d="M142.638,191.225
		c-0.081,3.535,0.001,7.006-0.662,10.474"/>
	<path fill="none" stroke="#231F20" stroke-width="0.8" stroke-linecap="round" stroke-miterlimit="10" d="M172.66,193.488
		c0.376,2.129,0.359,7.502,0.746,8.393"/>
	<path fill="none" stroke="#231F20" stroke-width="0.8" stroke-linecap="round" stroke-miterlimit="10" d="M252.622,169.05
		c6.282,8.267,5.282,22.063,8.269,32.2"/>
	<path fill="none" stroke="#231F20" stroke-width="0.8" stroke-linecap="round" stroke-miterlimit="10" d="M259.279,193.241
		c1.555,3.444,3.883,6.2,6.502,8.36"/>
	<path fill="none" stroke="#231F20" stroke-width="0.8" stroke-linecap="round" stroke-miterlimit="10" d="M175.472,169.625
		c-0.356,0.912,0.384,4.553,0.459,6.337c0.102,2.397-0.002,4.839,0.001,7.241"/>
	<path fill="none" stroke="#231F20" stroke-width="0.8" stroke-linecap="round" stroke-miterlimit="10" d="M276.503,168.186
		c5.401,2.858,8.401,6.621,13.401,9.131c12,5.017,23,5.017,35,10.033c7,2.508,14,7.525,21.306,14.203"/>
	<path fill="none" stroke="#231F20" stroke-width="0.8" stroke-linecap="round" stroke-miterlimit="10" d="M377.302,167.609
		c-0.096,11.313-0.776,22.615-2.01,33.824"/>
	<path fill="none" stroke="#231F20" stroke-width="0.8" stroke-linecap="round" stroke-miterlimit="10" d="M314.618,169.336
		c6.286,5.471,13.286,7.979,19.286,14.251c4,5.017,8,11.288,10.82,17.92"/>
	<path fill="none" stroke="#231F20" stroke-width="0.8" stroke-linecap="round" stroke-miterlimit="10" d="M292.807,168.475
		c10.963,5.799,11.914,24.354,20.796,32.986"/>
	<path fill="none" stroke="#231F20" stroke-width="0.8" stroke-linecap="round" stroke-miterlimit="10" d="M343.089,169.05
		c9.815,7.011,14.815,20.808,21.791,32.597"/>
	<path fill="none" stroke="#231F20" stroke-width="0.8" stroke-linecap="round" stroke-miterlimit="10" d="M331.839,169.05
		c-0.608,6.659,5.206,10.953,8.604,14.733c4.465,4.971,4.549,11.555,7.397,17.699"/>
	<path fill="none" stroke="#231F20" stroke-width="0.8" stroke-linecap="round" stroke-miterlimit="10" d="M351.126,190.361
		c2.605,2.057,4.24,5.873,6.953,7.695"/>
	<path fill="none" stroke="#231F20" stroke-width="0.8" stroke-linecap="round" stroke-miterlimit="10" d="M390.181,201.686
		c5.725-10.572,12.725-21.86,18.81-32.061"/>
	<path fill="none" stroke="#231F20" stroke-width="0.8" stroke-linecap="round" stroke-miterlimit="10" d="M291.952,201.156
		c0.224-2.041,0.424-6.527-0.295-7.915"/>
	<path fill="none" stroke="#231F20" stroke-width="0.8" stroke-linecap="round" stroke-miterlimit="10" d="M264.307,174.803
		c6.19,0.062,11.258,3.635,16.789,6.701c2.682,1.488,5.981,2.083,8.954,1.658c2.371-0.34,4.834-2.877,6.429-3.168"/>
	<path fill="none" stroke="#231F20" stroke-width="0.8" stroke-linecap="round" stroke-miterlimit="10" d="M356.8,169.093
		c4.681,6.112,9.605,11.972,14.937,17.188c5.088,4.982,10.291,8.625,14.315,15.076"/>
	<path fill="none" stroke="#231F20" stroke-width="0.8" stroke-linecap="round" stroke-miterlimit="10" d="M373.628,169.05
		c7.276,7.011,14.276,13.282,22.276,20.808c3,3.765,6,7.526,8.681,11.709"/>
	<path fill="none" stroke="#231F20" stroke-width="0.8" stroke-linecap="round" stroke-miterlimit="10" d="M390.39,168.761
		c5.516,11.063,11.516,22.353,18.889,32.575"/>
	<path fill="none" stroke="#231F20" stroke-width="0.8" stroke-linecap="round" stroke-miterlimit="10" d="M401.87,169.05
		c4.034,8.267,9.034,15.791,16.034,19.554c3,2.51,5,7.525,6.195,12.779"/>
	<path fill="none" stroke="#231F20" stroke-width="0.8" stroke-linecap="round" stroke-miterlimit="10" d="M410.333,168.807
		c0.934,3.625,2.578,7.26,3.881,10.9c0.935,2.605,2.166,7.184,3.73,8.639"/>
	<path fill="none" stroke="#231F20" stroke-width="0.8" stroke-linecap="round" stroke-miterlimit="10" d="M417.714,169.336
		c4.037,10.629,9.955,20.016,8.892,32.418"/>
	<path fill="none" stroke="#231F20" stroke-width="0.8" stroke-linecap="round" stroke-miterlimit="10" d="M410.366,192.953
		c1.539,3.021,3.205,5.939,5.008,8.721"/>
	<path fill="none" stroke="#231F20" stroke-width="0.8" stroke-linecap="round" stroke-miterlimit="10" d="M431.491,168.475
		c7.413,11.351,14.413,22.639,23.098,33.117"/>
	<path fill="none" stroke="#231F20" stroke-width="0.8" stroke-linecap="round" stroke-miterlimit="10" d="M451.926,167.898
		c-0.781,4.084,0.591,8.401-0.373,12.521c-1.729,7.396-4.321,13.444-1.987,21.271"/>
	<path fill="none" stroke="#231F20" stroke-width="0.8" stroke-linecap="round" stroke-miterlimit="10" d="M472.361,167.033
		c1.117,6.195,3.606,12.027,6.556,17.145c3.278,5.691,7.32,9.786,7.396,17.344"/>
	<path fill="none" stroke="#231F20" stroke-width="0.8" stroke-linecap="round" stroke-miterlimit="10" d="M490.961,168.761
		c0.184,5.47-1.721,11.884-2.705,17.058c-0.846,4.449-0.611,10.164-2.094,14.336"/>
	<path fill="none" stroke="#231F20" stroke-width="0.8" stroke-linecap="round" stroke-miterlimit="10" d="M456.748,168.186
		c9.156,9.131,12.156,22.928,20.579,33.5"/>
	<path fill="none" stroke="#231F20" stroke-width="0.8" stroke-linecap="round" stroke-miterlimit="10" d="M443.889,177.4
		c2.695,2.242,6.345,3.123,9.187,5.529c2.817,2.387,5.584,4.836,8.444,7.215c2.563,2.133,5.259,3.16,7.912,4.756
		c1.367,0.816,5.545,3.709,5.687,4.965"/>
	<path fill="none" stroke="#231F20" stroke-width="0.8" stroke-linecap="round" stroke-miterlimit="10" d="M480.398,170.201
		c6.032,4.738,10.599,10.871,16.835,15.48"/>
	<path fill="none" stroke="#231F20" stroke-width="0.8" stroke-linecap="round" stroke-miterlimit="10" d="M467.582,168.215
		c4.322,10.355,8.322,21.643,11.072,33.328"/>
	<path fill="none" stroke="#231F20" stroke-width="0.8" stroke-linecap="round" stroke-miterlimit="10" d="M431.263,193.241
		c0.82,2.729,1.795,5.39,2.955,7.921"/>
</g>
</svg>
