<?xml version="1.0" encoding="utf-8" ?>
<svg baseProfile="full" height="100px" version="1.1" width="150px" xmlns="http://www.w3.org/2000/svg" xmlns:ev="http://www.w3.org/2001/xml-events" xmlns:xlink="http://www.w3.org/1999/xlink"><defs><clipPath id="mask0"><rect height="100" width="150" x="0" y="0" /></clipPath></defs><g clip-path="url(#mask0)"><rect fill="#ffffff" height="33.333333333333336" stroke="none" width="150" x="0" y="0.0" /><rect fill="#6699ff" height="33.333333333333336" stroke="none" width="150" x="0" y="33.333333333333336" /><rect fill="#cc0033" height="33.333333333333336" stroke="none" width="150" x="0" y="66.66666666666667" /><path d="M0,0 L86.60254037844386,50.0 L0,100 z" fill="#ffce00" stroke="none" /></g><path d="M 139.06705105244782 50.0 L 126.73837093572449 52.45256644804821 L 134.6062085053935 62.256064169774156 L 123.58541228624786 56.21011624586298 L 123.3109586687399 68.7773797035302 L 118.75479938061687 57.06188363448423 L 110.46647447377609 66.51255058667464 L 114.50682968365864 54.60931718643602 L 102.08283282586659 56.52131553375605 L 112.82917542750428 50.0 L 102.08283282586659 43.47868446624395 L 114.50682968365864 45.39068281356398 L 110.46647447377607 33.487449413325365 L 118.75479938061687 42.93811636551577 L 123.31095866873989 31.222620296469795 L 123.58541228624786 43.78988375413702 L 134.6062085053935 37.74393583022584 L 126.73837093572449 47.547433551951784 z" fill="#603814" stroke="none" /></svg>