<?xml version="1.0" encoding="utf-8" ?>
<svg baseProfile="full" height="100px" version="1.1" width="150px" xmlns="http://www.w3.org/2000/svg" xmlns:ev="http://www.w3.org/2001/xml-events" xmlns:xlink="http://www.w3.org/1999/xlink"><defs><clipPath id="mask0"><rect height="100" width="150" x="0" y="0" /></clipPath></defs><g clip-path="url(#mask0)"><rect fill="#ffffff" height="33.333333333333336" stroke="none" width="150" x="0" y="0.0" /><rect fill="#cc0033" height="33.333333333333336" stroke="none" width="150" x="0" y="33.333333333333336" /><rect fill="#003897" height="33.333333333333336" stroke="none" width="150" x="0" y="66.66666666666667" /></g><g transform="translate(57.4734615253888, 32.4734615253888) scale(0.3505307694922241) rotate(0, 50.0, 50.0)"><path d="M 11.0,67.0 C 8.0,66.9 5.6,66.1 3.7,64.6 C 3.3000000000000003,64.3 2.5,63.49999999999999 2.2,63.099999999999994 C 1.4000000000000001,62.099999999999994 0.9000000000000001,61.199999999999996 0.6000000000000001,60.199999999999996 C -0.5,56.99999999999999 0.10000000000000009,52.8 2.2,48.199999999999996 C 4.0,44.199999999999996 6.8,40.3 11.7,34.89999999999999 C 12.399999999999999,34.099999999999994 14.6,31.79999999999999 14.6,31.79999999999999 C 14.6,31.79999999999999 14.5,31.99999999999999 14.299999999999999,32.19999999999999 C 12.999999999999998,34.29999999999999 12.0,36.79999999999999 11.399999999999999,38.89999999999999 C 10.499999999999998,42.29999999999999 10.599999999999998,45.29999999999999 11.7,47.599999999999994 C 12.5,49.199999999999996 13.899999999999999,50.49999999999999 15.399999999999999,51.3 C 18.099999999999998,52.599999999999994 22.099999999999998,52.699999999999996 27.0,51.599999999999994 C 27.3,51.49999999999999 43.9,47.199999999999996 63.9,41.89999999999999 C 83.8,36.599999999999994 100.1,32.29999999999999 100.19999999999999,32.29999999999999 C 100.19999999999999,32.29999999999999 53.89999999999999,51.999999999999986 29.799999999999983,62.19999999999999 C 25.999999999999982,63.79999999999999 24.999999999999982,64.19999999999999 23.19999999999998,64.79999999999998 C 18.4,66.4 14.3,67.1 11.0,67.0 L 11.0,67.0" fill="#fcdc04" stroke="none" stroke-width="3.0px" /></g></svg>