<?xml version="1.0" encoding="utf-8" ?>
<svg baseProfile="full" height="100px" version="1.1" width="150px" xmlns="http://www.w3.org/2000/svg" xmlns:ev="http://www.w3.org/2001/xml-events" xmlns:xlink="http://www.w3.org/1999/xlink"><defs><clipPath id="mask0"><rect height="100" width="150" x="0" y="0" /></clipPath></defs><g clip-path="url(#mask0)"><rect fill="#ffffff" height="100" stroke="none" width="150" x="0" y="0" /><rect fill="#ffce00" height="50.0" stroke="none" width="75.0" x="0" y="0" /><rect fill="#ffce00" height="50.0" stroke="none" width="75.0" x="75.0" y="50.0" /></g><g transform="translate(27.041825131630496, 14.541825131630496) scale(0.2091634973673901) rotate(0, 50.0, 50.0)"><path d="M 50.0,0.0 C 77.6,0.0 100.1,22.5 100.0,50.1 C 99.9,77.7 77.4,100.2 49.9,100.0 C 22.3,99.9 0.0,77.6 0.0,50.0 C 0.0,22.5 22.5,0.0 50.0,0.0 M 26.4,19.0 C 33.199999999999996,25.8 40.0,32.7 46.8,39.6 C 49.4,37.0 52.0,34.4 54.599999999999994,31.8 C 56.89999999999999,29.6 58.599999999999994,29.5 60.8,31.8 C 61.9,33.0 62.8,32.9 63.9,31.8 C 66.4,29.2 69.0,26.700000000000003 71.5,24.200000000000003 C 71.9,23.800000000000004 72.4,23.400000000000002 72.9,23.000000000000004 C 74.2,22.200000000000003 76.0,22.400000000000002 76.9,23.400000000000002 C 77.9,24.500000000000004 78.10000000000001,26.1 77.2,27.400000000000002 C 76.9,27.900000000000002 76.5,28.400000000000002 76.0,28.8 C 73.5,31.3 71.0,33.8 68.5,36.3 C 67.0,37.8 67.0,38.0 68.4,39.599999999999994 C 70.60000000000001,41.89999999999999 70.60000000000001,43.39999999999999 68.4,45.599999999999994 C 65.7,48.3 63.10000000000001,50.89999999999999 60.60000000000001,53.39999999999999 C 67.4,60.19999999999999 74.10000000000001,66.89999999999999 80.80000000000001,73.6 C 91.70000000000002,60.599999999999994 93.00000000000001,37.89999999999999 77.70000000000002,22.39999999999999 C 62.1,6.7 39.2,8.3 26.4,19.0 M 19.1,26.2 C 7.200000000000001,41.2 8.000000000000002,63.900000000000006 23.0,78.2 C 38.9,93.4 61.4,91.3 73.7,80.9 C 67.0,74.2 60.2,67.5 53.4,60.7 C 50.8,63.300000000000004 48.1,66.0 45.4,68.8 C 43.1,71.1 41.5,71.1 39.199999999999996,68.8 C 37.9,67.5 37.49999999999999,67.5 36.199999999999996,68.8 C 33.099999999999994,71.89999999999999 33.099999999999994,71.89999999999999 35.9,75.39999999999999 C 37.0,76.89999999999999 37.0,78.49999999999999 35.8,79.69999999999999 C 34.5,80.99999999999999 32.699999999999996,81.19999999999999 31.4,79.89999999999999 C 27.599999999999998,76.19999999999999 23.9,72.49999999999999 20.2,68.69999999999999 C 19.0,67.39999999999999 19.2,65.6 20.5,64.29999999999998 C 21.7,63.09999999999998 23.3,63.09999999999998 24.7,64.29999999999998 C 25.3,64.79999999999998 25.7,65.29999999999998 26.3,65.79999999999998 C 27.7,67.09999999999998 28.6,67.09999999999998 30.0,65.79999999999998 C 30.4,65.39999999999998 30.8,64.99999999999999 31.2,64.59999999999998 C 33.0,62.79999999999998 33.0,62.79999999999998 31.3,60.79999999999998 C 29.3,58.59999999999998 29.3,57.19999999999998 31.400000000000002,55.19999999999998 C 34.2,52.399999999999984 37.1,49.59999999999998 39.900000000000006,46.89999999999998 C 32.8,39.9 26.0,33.1 19.1,26.2 M 58.9,41.0 C 58.8,42.8 57.3,43.7 56.1,43.0 C 55.4,42.6 54.9,42.0 54.4,41.4 C 53.699999999999996,40.699999999999996 53.1,40.699999999999996 52.4,41.4 C 51.699999999999996,42.1 51.4,42.699999999999996 52.199999999999996,43.5 C 53.4,44.6 54.49999999999999,45.8 55.699999999999996,46.9 C 56.4,47.6 56.99999999999999,47.5 57.699999999999996,46.8 C 59.4,45.099999999999994 60.99999999999999,43.5 62.699999999999996,41.8 C 63.49999999999999,41.0 63.4,40.4 62.599999999999994,39.699999999999996 C 61.599999999999994,38.699999999999996 60.599999999999994,37.8 59.599999999999994,36.8 C 58.89999999999999,36.099999999999994 58.199999999999996,35.5 57.199999999999996,36.5 C 56.199999999999996,37.5 56.49999999999999,38.2 57.3,39.0 C 58.0,39.8 58.5,40.6 58.9,41.0 M 43.8,56.8 C 43.3,57.5 43.099999999999994,58.199999999999996 42.599999999999994,58.3 C 41.89999999999999,58.5 41.099999999999994,58.5 40.39999999999999,58.199999999999996 C 39.79999999999999,57.99999999999999 39.39999999999999,57.3 38.89999999999999,56.8 C 38.19999999999999,56.099999999999994 37.599999999999994,56.099999999999994 36.89999999999999,56.8 C 36.19999999999999,57.5 35.89999999999999,58.099999999999994 36.69999999999999,58.9 C 37.89999999999999,60.0 38.999999999999986,61.199999999999996 40.09999999999999,62.3 C 40.79999999999999,63.0 41.399999999999984,63.0 42.09999999999999,62.3 C 43.79999999999999,60.599999999999994 45.499999999999986,58.9 47.19999999999999,57.199999999999996 C 47.89999999999999,56.49999999999999 47.79999999999999,55.9 47.09999999999999,55.199999999999996 C 46.09999999999999,54.199999999999996 45.09999999999999,53.199999999999996 44.09999999999999,52.199999999999996 C 43.29999999999999,51.4 42.69999999999999,50.8 41.59999999999999,51.9 C 40.499999999999986,53.0 41.09999999999999,53.699999999999996 41.899999999999984,54.5 C 42.8,55.2 43.2,56.0 43.8,56.8" fill="#68bfe5" stroke="none" stroke-width="2.0px" /></g><g transform="translate(102.0418251316305, 64.5418251316305) scale(0.2091634973673901) rotate(0, 50.0, 50.0)"><path d="M 50.0,0.0 C 77.6,0.0 100.1,22.5 100.0,50.1 C 99.9,77.7 77.4,100.2 49.9,100.0 C 22.3,99.9 0.0,77.6 0.0,50.0 C 0.0,22.5 22.5,0.0 50.0,0.0 M 26.4,19.0 C 33.199999999999996,25.8 40.0,32.7 46.8,39.6 C 49.4,37.0 52.0,34.4 54.599999999999994,31.8 C 56.89999999999999,29.6 58.599999999999994,29.5 60.8,31.8 C 61.9,33.0 62.8,32.9 63.9,31.8 C 66.4,29.2 69.0,26.700000000000003 71.5,24.200000000000003 C 71.9,23.800000000000004 72.4,23.400000000000002 72.9,23.000000000000004 C 74.2,22.200000000000003 76.0,22.400000000000002 76.9,23.400000000000002 C 77.9,24.500000000000004 78.10000000000001,26.1 77.2,27.400000000000002 C 76.9,27.900000000000002 76.5,28.400000000000002 76.0,28.8 C 73.5,31.3 71.0,33.8 68.5,36.3 C 67.0,37.8 67.0,38.0 68.4,39.599999999999994 C 70.60000000000001,41.89999999999999 70.60000000000001,43.39999999999999 68.4,45.599999999999994 C 65.7,48.3 63.10000000000001,50.89999999999999 60.60000000000001,53.39999999999999 C 67.4,60.19999999999999 74.10000000000001,66.89999999999999 80.80000000000001,73.6 C 91.70000000000002,60.599999999999994 93.00000000000001,37.89999999999999 77.70000000000002,22.39999999999999 C 62.1,6.7 39.2,8.3 26.4,19.0 M 19.1,26.2 C 7.200000000000001,41.2 8.000000000000002,63.900000000000006 23.0,78.2 C 38.9,93.4 61.4,91.3 73.7,80.9 C 67.0,74.2 60.2,67.5 53.4,60.7 C 50.8,63.300000000000004 48.1,66.0 45.4,68.8 C 43.1,71.1 41.5,71.1 39.199999999999996,68.8 C 37.9,67.5 37.49999999999999,67.5 36.199999999999996,68.8 C 33.099999999999994,71.89999999999999 33.099999999999994,71.89999999999999 35.9,75.39999999999999 C 37.0,76.89999999999999 37.0,78.49999999999999 35.8,79.69999999999999 C 34.5,80.99999999999999 32.699999999999996,81.19999999999999 31.4,79.89999999999999 C 27.599999999999998,76.19999999999999 23.9,72.49999999999999 20.2,68.69999999999999 C 19.0,67.39999999999999 19.2,65.6 20.5,64.29999999999998 C 21.7,63.09999999999998 23.3,63.09999999999998 24.7,64.29999999999998 C 25.3,64.79999999999998 25.7,65.29999999999998 26.3,65.79999999999998 C 27.7,67.09999999999998 28.6,67.09999999999998 30.0,65.79999999999998 C 30.4,65.39999999999998 30.8,64.99999999999999 31.2,64.59999999999998 C 33.0,62.79999999999998 33.0,62.79999999999998 31.3,60.79999999999998 C 29.3,58.59999999999998 29.3,57.19999999999998 31.400000000000002,55.19999999999998 C 34.2,52.399999999999984 37.1,49.59999999999998 39.900000000000006,46.89999999999998 C 32.8,39.9 26.0,33.1 19.1,26.2 M 58.9,41.0 C 58.8,42.8 57.3,43.7 56.1,43.0 C 55.4,42.6 54.9,42.0 54.4,41.4 C 53.699999999999996,40.699999999999996 53.1,40.699999999999996 52.4,41.4 C 51.699999999999996,42.1 51.4,42.699999999999996 52.199999999999996,43.5 C 53.4,44.6 54.49999999999999,45.8 55.699999999999996,46.9 C 56.4,47.6 56.99999999999999,47.5 57.699999999999996,46.8 C 59.4,45.099999999999994 60.99999999999999,43.5 62.699999999999996,41.8 C 63.49999999999999,41.0 63.4,40.4 62.599999999999994,39.699999999999996 C 61.599999999999994,38.699999999999996 60.599999999999994,37.8 59.599999999999994,36.8 C 58.89999999999999,36.099999999999994 58.199999999999996,35.5 57.199999999999996,36.5 C 56.199999999999996,37.5 56.49999999999999,38.2 57.3,39.0 C 58.0,39.8 58.5,40.6 58.9,41.0 M 43.8,56.8 C 43.3,57.5 43.099999999999994,58.199999999999996 42.599999999999994,58.3 C 41.89999999999999,58.5 41.099999999999994,58.5 40.39999999999999,58.199999999999996 C 39.79999999999999,57.99999999999999 39.39999999999999,57.3 38.89999999999999,56.8 C 38.19999999999999,56.099999999999994 37.599999999999994,56.099999999999994 36.89999999999999,56.8 C 36.19999999999999,57.5 35.89999999999999,58.099999999999994 36.69999999999999,58.9 C 37.89999999999999,60.0 38.999999999999986,61.199999999999996 40.09999999999999,62.3 C 40.79999999999999,63.0 41.399999999999984,63.0 42.09999999999999,62.3 C 43.79999999999999,60.599999999999994 45.499999999999986,58.9 47.19999999999999,57.199999999999996 C 47.89999999999999,56.49999999999999 47.79999999999999,55.9 47.09999999999999,55.199999999999996 C 46.09999999999999,54.199999999999996 45.09999999999999,53.199999999999996 44.09999999999999,52.199999999999996 C 43.29999999999999,51.4 42.69999999999999,50.8 41.59999999999999,51.9 C 40.499999999999986,53.0 41.09999999999999,53.699999999999996 41.899999999999984,54.5 C 42.8,55.2 43.2,56.0 43.8,56.8" fill="#68bfe5" stroke="none" stroke-width="2.0px" /></g><g transform="translate(25.851931017569783, 63.35193101756978) scale(0.23296137964860436) rotate(0, 50.0, 50.0)"><path d="M 47.8,54.7 C 47.8,52.400000000000006 47.9,50.400000000000006 47.699999999999996,48.300000000000004 C 47.699999999999996,47.900000000000006 46.99999999999999,47.50000000000001 46.599999999999994,47.300000000000004 C 44.49999999999999,46.300000000000004 42.3,45.400000000000006 40.099999999999994,44.6 C 39.599999999999994,44.4 38.8,44.4 38.49999999999999,44.7 C 36.99999999999999,45.900000000000006 35.599999999999994,47.300000000000004 34.099999999999994,48.800000000000004 C 34.699999999999996,49.50000000000001 35.099999999999994,49.900000000000006 35.49999999999999,50.400000000000006 C 36.49999999999999,51.50000000000001 36.39999999999999,52.60000000000001 35.49999999999999,53.60000000000001 C 34.599999999999994,54.70000000000001 33.39999999999999,54.70000000000001 32.39999999999999,53.80000000000001 C 30.199999999999992,51.70000000000001 28.09999999999999,49.60000000000001 25.999999999999993,47.40000000000001 C 25.099999999999994,46.40000000000001 25.199999999999992,45.30000000000001 26.099999999999994,44.40000000000001 C 26.999999999999993,43.40000000000001 28.099999999999994,43.500000000000014 29.099999999999994,44.20000000000001 C 29.699999999999996,44.60000000000001 30.199999999999996,45.10000000000001 30.699999999999996,45.60000000000001 C 32.3,43.900000000000006 33.9,42.20000000000001 35.3,40.80000000000001 C 34.3,38.20000000000001 33.4,35.60000000000001 32.4,32.90000000000001 C 32.3,32.600000000000016 31.799999999999997,32.100000000000016 31.5,32.100000000000016 C 29.4,32.000000000000014 27.4,32.100000000000016 25.2,32.100000000000016 C 25.099999999999998,32.90000000000001 25.2,33.500000000000014 25.099999999999998,34.20000000000002 C 24.9,35.500000000000014 24.2,36.30000000000002 22.9,36.30000000000002 C 21.5,36.30000000000002 20.599999999999998,35.50000000000002 20.5,34.20000000000002 C 20.4,31.200000000000017 20.4,28.200000000000017 20.5,25.200000000000017 C 20.5,24.000000000000018 21.4,23.100000000000016 22.7,23.100000000000016 C 24.099999999999998,23.100000000000016 25.099999999999998,24.000000000000014 25.0,25.300000000000015 C 24.8,27.600000000000016 26.1,27.600000000000016 27.7,27.500000000000014 C 29.099999999999998,27.400000000000013 30.7,27.900000000000013 31.7,27.300000000000015 C 32.6,26.700000000000014 32.6,24.900000000000016 33.2,23.700000000000014 C 33.900000000000006,22.100000000000012 34.7,20.500000000000014 35.400000000000006,19.000000000000014 C 33.900000000000006,17.500000000000014 32.2,15.900000000000015 30.500000000000007,14.200000000000014 C 30.300000000000008,14.400000000000013 29.700000000000006,14.900000000000013 29.10000000000001,15.300000000000013 C 28.000000000000007,16.100000000000012 27.000000000000007,16.000000000000014 26.10000000000001,15.100000000000014 C 25.10000000000001,14.200000000000014 25.000000000000007,13.000000000000014 25.90000000000001,12.100000000000014 C 28.00000000000001,9.900000000000013 30.10000000000001,7.800000000000014 32.30000000000001,5.7000000000000135 C 33.20000000000001,4.800000000000013 34.40000000000001,4.900000000000014 35.30000000000001,5.900000000000014 C 36.20000000000001,6.800000000000014 36.40000000000001,7.900000000000014 35.60000000000001,8.900000000000013 C 35.20000000000001,9.500000000000012 34.70000000000001,10.000000000000012 34.00000000000001,10.700000000000014 C 35.50000000000001,12.200000000000014 37.00000000000001,13.700000000000014 38.60000000000001,15.100000000000014 C 38.80000000000001,15.300000000000013 39.50000000000001,15.200000000000014 39.80000000000001,15.100000000000014 C 42.10000000000001,14.200000000000014 44.500000000000014,13.200000000000014 46.80000000000001,12.200000000000014 C 47.20000000000001,12.000000000000014 47.60000000000001,11.600000000000014 47.60000000000001,11.300000000000013 C 47.70000000000001,9.200000000000014 47.60000000000001,7.2000000000000135 47.60000000000001,5.000000000000013 C 46.80000000000001,4.900000000000014 46.10000000000001,4.900000000000014 45.50000000000001,4.800000000000013 C 44.20000000000001,4.600000000000013 43.300000000000004,3.800000000000013 43.400000000000006,2.4000000000000132 C 43.5,0.8 44.3,0.0 45.7,0.0 C 48.5,0.0 51.400000000000006,0.0 54.2,0.0 C 55.6,0.0 56.5,0.8 56.5,2.1 C 56.6,3.5 55.7,4.300000000000001 54.4,4.5 C 53.8,4.6 53.1,4.6 52.199999999999996,4.6 C 52.199999999999996,6.699999999999999 52.199999999999996,8.7 52.199999999999996,10.6 C 52.199999999999996,10.9 52.699999999999996,11.4 52.99999999999999,11.5 C 55.599999999999994,12.5 58.199999999999996,13.4 60.79999999999999,14.4 C 62.19999999999999,13.0 63.79999999999999,11.4 65.49999999999999,9.7 C 65.19999999999999,9.399999999999999 64.69999999999999,8.899999999999999 64.29999999999998,8.5 C 63.499999999999986,7.5 63.499999999999986,6.4 64.39999999999998,5.5 C 65.19999999999997,4.6 66.39999999999998,4.4 67.29999999999998,5.2 C 69.59999999999998,7.4 71.89999999999998,9.600000000000001 73.99999999999999,12.0 C 74.39999999999999,12.5 74.19999999999999,13.9 73.79999999999998,14.7 C 73.19999999999999,15.7 72.09999999999998,15.899999999999999 70.99999999999999,15.299999999999999 C 70.29999999999998,14.899999999999999 69.69999999999999,14.299999999999999 69.09999999999998,13.799999999999999 C 67.39999999999998,15.499999999999998 65.79999999999998,17.099999999999998 64.49999999999999,18.4 C 65.49999999999999,21.099999999999998 66.39999999999999,23.799999999999997 67.39999999999999,26.4 C 67.49999999999999,26.7 67.89999999999999,27.099999999999998 68.19999999999999,27.099999999999998 C 70.29999999999998,27.2 72.39999999999999,27.099999999999998 74.6,27.099999999999998 C 74.6,26.299999999999997 74.69999999999999,25.7 74.69999999999999,25.099999999999998 C 74.79999999999998,23.7 75.49999999999999,22.9 76.89999999999999,22.799999999999997 C 78.19999999999999,22.699999999999996 79.19999999999999,23.599999999999998 79.19999999999999,24.799999999999997 C 79.29999999999998,27.9 79.39999999999999,31.099999999999998 79.1,34.199999999999996 C 79.0,34.9 77.8,35.8 76.89999999999999,35.99999999999999 C 75.69999999999999,36.199999999999996 74.8,35.29999999999999 74.69999999999999,33.99999999999999 C 74.6,33.39999999999999 74.69999999999999,32.79999999999999 74.69999999999999,31.89999999999999 C 72.49999999999999,31.89999999999999 70.29999999999998,31.89999999999999 68.19999999999999,31.89999999999999 C 67.89999999999999,31.89999999999999 67.49999999999999,32.39999999999999 67.39999999999999,32.79999999999999 C 66.39999999999999,35.29999999999999 65.49999999999999,37.79999999999999 64.39999999999999,40.79999999999999 C 65.8,42.09999999999999 67.6,43.79999999999999 69.39999999999999,45.59999999999999 C 69.99999999999999,44.999999999999986 70.39999999999999,44.59999999999999 70.89999999999999,44.19999999999999 C 71.89999999999999,43.39999999999999 72.99999999999999,43.39999999999999 73.99999999999999,44.29999999999999 C 74.89999999999999,45.09999999999999 75.09999999999998,46.29999999999999 74.29999999999998,47.19999999999999 C 72.09999999999998,49.59999999999999 69.79999999999998,51.89999999999999 67.39999999999998,54.09999999999999 C 66.49999999999997,54.999999999999986 65.19999999999997,54.69999999999999 64.59999999999998,53.69999999999999 C 64.19999999999997,52.999999999999986 64.09999999999998,51.89999999999999 64.29999999999998,50.999999999999986 C 64.39999999999998,50.29999999999998 65.19999999999999,49.79999999999998 65.99999999999999,48.79999999999998 C 64.49999999999999,47.399999999999984 62.999999999999986,45.999999999999986 61.399999999999984,44.69999999999998 C 61.09999999999999,44.49999999999998 60.29999999999998,44.49999999999998 59.899999999999984,44.69999999999998 C 57.69999999999998,45.59999999999998 55.59999999999999,46.49999999999998 53.399999999999984,47.399999999999984 C 52.899999999999984,47.59999999999999 52.29999999999998,48.09999999999999 52.29999999999998,48.399999999999984 C 52.19999999999998,50.399999999999984 52.19999999999998,52.499999999999986 52.19999999999998,54.69999999999998 C 52.99999999999998,54.69999999999998 53.69999999999998,54.79999999999998 54.29999999999998,54.79999999999998 C 55.499999999999986,54.899999999999984 56.29999999999998,55.59999999999998 56.399999999999984,56.79999999999998 C 56.59999999999999,58.09999999999998 55.79999999999998,59.19999999999998 54.59999999999999,59.29999999999998 C 51.399999999999984,59.499999999999986 48.19999999999999,59.499999999999986 44.999999999999986,59.29999999999998 C 43.69999999999999,59.19999999999998 42.999999999999986,58.19999999999998 43.19999999999999,56.899999999999984 C 43.29999999999999,55.69999999999998 44.09999999999999,54.899999999999984 45.39999999999999,54.79999999999998 C 46.4,54.7 46.9,54.7 47.8,54.7 M 49.2,17.7 C 43.300000000000004,17.8 37.900000000000006,23.4 38.300000000000004,29.299999999999997 C 38.400000000000006,30.699999999999996 39.00000000000001,31.599999999999998 40.400000000000006,31.599999999999998 C 41.800000000000004,31.599999999999998 42.60000000000001,30.9 42.800000000000004,29.499999999999996 C 43.50000000000001,24.699999999999996 45.1,23.099999999999994 50.00000000000001,22.199999999999996 C 51.400000000000006,21.899999999999995 52.50000000000001,21.299999999999997 52.300000000000004,19.599999999999994 C 52.1,18.1 50.9,17.6 49.2,17.7" fill="#d92d59" stroke="none" stroke-width="2.0px" /><path d="M 85.3,51.6 C 87.5,48.5 89.6,45.4 91.8,42.400000000000006 C 93.0,40.7 94.8,40.300000000000004 96.5,41.10000000000001 C 98.1,41.900000000000006 98.8,43.400000000000006 98.2,45.50000000000001 C 95.8,54.50000000000001 93.4,63.50000000000001 90.9,72.5 C 90.2,75.0 88.7,76.9 86.5,78.3 C 82.5,80.8 78.5,83.3 74.4,85.7 C 74.0,85.9 73.5,86.2 73.10000000000001,86.2 C 67.00000000000001,86.2 60.900000000000006,86.2 54.60000000000001,86.2 C 54.80000000000001,85.5 54.80000000000001,85.0 55.00000000000001,84.60000000000001 C 56.60000000000001,79.50000000000001 58.20000000000001,74.50000000000001 59.70000000000001,69.4 C 60.40000000000001,67.0 61.80000000000001,65.2 63.80000000000001,63.800000000000004 C 68.30000000000001,60.6 72.9,57.400000000000006 77.4,54.2 C 79.2,52.900000000000006 80.9,53.0 82.0,54.300000000000004 C 83.2,55.6 83.1,57.2 81.4,58.800000000000004 C 77.9,62.2 74.2,65.4 70.7,68.80000000000001 C 70.10000000000001,69.30000000000001 69.7,70.30000000000001 69.8,71.10000000000001 C 69.8,71.60000000000001 70.7,72.30000000000001 71.3,72.50000000000001 C 71.8,72.70000000000002 72.6,72.40000000000002 73.0,72.10000000000001 C 77.1,68.30000000000001 81.3,64.60000000000001 85.2,60.60000000000001 C 87.4,58.4 87.3,55.2 85.3,51.6" fill="#d92d59" stroke="none" stroke-width="2.0px" /><path d="M 45.2,86.0 C 41.400000000000006,86.0 37.7,85.7 34.0,86.1 C 28.6,86.6 23.9,85.39999999999999 19.7,82.0 C 17.9,80.6 15.7,79.5 13.7,78.2 C 11.299999999999999,76.7 9.7,74.60000000000001 8.899999999999999,71.8 C 6.599999999999999,63.0 4.099999999999999,54.099999999999994 1.799999999999999,45.3 C 1.299999999999999,43.3 1.999999999999999,41.8 3.699999999999999,40.9 C 5.199999999999999,40.1 6.799999999999999,40.5 7.999999999999998,42.1 C 10.099999999999998,44.9 12.2,47.800000000000004 14.099999999999998,50.8 C 14.299999999999997,51.099999999999994 14.299999999999997,51.9 13.999999999999998,52.3 C 12.399999999999999,55.599999999999994 12.599999999999998,58.5 15.199999999999998,61.099999999999994 C 18.799999999999997,64.69999999999999 22.599999999999998,68.1 26.299999999999997,71.5 C 27.4,72.5 28.499999999999996,72.9 29.699999999999996,71.8 C 30.599999999999994,70.89999999999999 30.199999999999996,69.6 28.799999999999997,68.39999999999999 C 25.199999999999996,65.1 21.699999999999996,61.79999999999999 18.199999999999996,58.49999999999999 C 16.699999999999996,57.099999999999994 16.699999999999996,55.49999999999999 17.799999999999997,54.199999999999996 C 18.799999999999997,52.99999999999999 20.599999999999998,52.699999999999996 22.099999999999998,53.8 C 27.0,57.199999999999996 31.9,60.599999999999994 36.699999999999996,64.2 C 38.099999999999994,65.2 39.3,66.9 39.8,68.5 C 41.699999999999996,73.9 43.3,79.4 45.0,84.9 C 45.2,85.2 45.2,85.5 45.2,86.0" fill="#d92d59" stroke="none" stroke-width="2.0px" /><path d="M 27.5,90.2 C 33.9,90.2 39.9,90.2 46.2,90.2 C 46.2,92.9 46.2,95.60000000000001 46.2,98.2 C 46.2,99.4 45.300000000000004,100.0 44.2,100.0 C 39.300000000000004,100.0 34.5,100.0 29.6,100.0 C 28.400000000000002,100.0 27.5,99.4 27.5,98.1 C 27.5,95.5 27.5,92.9 27.5,90.2" fill="#d92d59" stroke="none" stroke-width="2.0px" /><path d="M 53.8,90.2 C 60.099999999999994,90.2 66.2,90.2 72.5,90.2 C 72.5,92.9 72.5,95.60000000000001 72.5,98.2 C 72.5,99.4 71.6,100.0 70.5,100.0 C 65.6,100.0 60.8,100.0 55.9,100.0 C 54.8,100.0 53.9,99.5 53.8,98.3 C 53.7,95.6 53.8,93.0 53.8,90.2" fill="#d92d59" stroke="none" stroke-width="2.0px" /></g><g transform="translate(100.85193101756978, 13.351931017569783) scale(0.23296137964860436) rotate(0, 50.0, 50.0)"><path d="M 47.8,54.7 C 47.8,52.400000000000006 47.9,50.400000000000006 47.699999999999996,48.300000000000004 C 47.699999999999996,47.900000000000006 46.99999999999999,47.50000000000001 46.599999999999994,47.300000000000004 C 44.49999999999999,46.300000000000004 42.3,45.400000000000006 40.099999999999994,44.6 C 39.599999999999994,44.4 38.8,44.4 38.49999999999999,44.7 C 36.99999999999999,45.900000000000006 35.599999999999994,47.300000000000004 34.099999999999994,48.800000000000004 C 34.699999999999996,49.50000000000001 35.099999999999994,49.900000000000006 35.49999999999999,50.400000000000006 C 36.49999999999999,51.50000000000001 36.39999999999999,52.60000000000001 35.49999999999999,53.60000000000001 C 34.599999999999994,54.70000000000001 33.39999999999999,54.70000000000001 32.39999999999999,53.80000000000001 C 30.199999999999992,51.70000000000001 28.09999999999999,49.60000000000001 25.999999999999993,47.40000000000001 C 25.099999999999994,46.40000000000001 25.199999999999992,45.30000000000001 26.099999999999994,44.40000000000001 C 26.999999999999993,43.40000000000001 28.099999999999994,43.500000000000014 29.099999999999994,44.20000000000001 C 29.699999999999996,44.60000000000001 30.199999999999996,45.10000000000001 30.699999999999996,45.60000000000001 C 32.3,43.900000000000006 33.9,42.20000000000001 35.3,40.80000000000001 C 34.3,38.20000000000001 33.4,35.60000000000001 32.4,32.90000000000001 C 32.3,32.600000000000016 31.799999999999997,32.100000000000016 31.5,32.100000000000016 C 29.4,32.000000000000014 27.4,32.100000000000016 25.2,32.100000000000016 C 25.099999999999998,32.90000000000001 25.2,33.500000000000014 25.099999999999998,34.20000000000002 C 24.9,35.500000000000014 24.2,36.30000000000002 22.9,36.30000000000002 C 21.5,36.30000000000002 20.599999999999998,35.50000000000002 20.5,34.20000000000002 C 20.4,31.200000000000017 20.4,28.200000000000017 20.5,25.200000000000017 C 20.5,24.000000000000018 21.4,23.100000000000016 22.7,23.100000000000016 C 24.099999999999998,23.100000000000016 25.099999999999998,24.000000000000014 25.0,25.300000000000015 C 24.8,27.600000000000016 26.1,27.600000000000016 27.7,27.500000000000014 C 29.099999999999998,27.400000000000013 30.7,27.900000000000013 31.7,27.300000000000015 C 32.6,26.700000000000014 32.6,24.900000000000016 33.2,23.700000000000014 C 33.900000000000006,22.100000000000012 34.7,20.500000000000014 35.400000000000006,19.000000000000014 C 33.900000000000006,17.500000000000014 32.2,15.900000000000015 30.500000000000007,14.200000000000014 C 30.300000000000008,14.400000000000013 29.700000000000006,14.900000000000013 29.10000000000001,15.300000000000013 C 28.000000000000007,16.100000000000012 27.000000000000007,16.000000000000014 26.10000000000001,15.100000000000014 C 25.10000000000001,14.200000000000014 25.000000000000007,13.000000000000014 25.90000000000001,12.100000000000014 C 28.00000000000001,9.900000000000013 30.10000000000001,7.800000000000014 32.30000000000001,5.7000000000000135 C 33.20000000000001,4.800000000000013 34.40000000000001,4.900000000000014 35.30000000000001,5.900000000000014 C 36.20000000000001,6.800000000000014 36.40000000000001,7.900000000000014 35.60000000000001,8.900000000000013 C 35.20000000000001,9.500000000000012 34.70000000000001,10.000000000000012 34.00000000000001,10.700000000000014 C 35.50000000000001,12.200000000000014 37.00000000000001,13.700000000000014 38.60000000000001,15.100000000000014 C 38.80000000000001,15.300000000000013 39.50000000000001,15.200000000000014 39.80000000000001,15.100000000000014 C 42.10000000000001,14.200000000000014 44.500000000000014,13.200000000000014 46.80000000000001,12.200000000000014 C 47.20000000000001,12.000000000000014 47.60000000000001,11.600000000000014 47.60000000000001,11.300000000000013 C 47.70000000000001,9.200000000000014 47.60000000000001,7.2000000000000135 47.60000000000001,5.000000000000013 C 46.80000000000001,4.900000000000014 46.10000000000001,4.900000000000014 45.50000000000001,4.800000000000013 C 44.20000000000001,4.600000000000013 43.300000000000004,3.800000000000013 43.400000000000006,2.4000000000000132 C 43.5,0.8 44.3,0.0 45.7,0.0 C 48.5,0.0 51.400000000000006,0.0 54.2,0.0 C 55.6,0.0 56.5,0.8 56.5,2.1 C 56.6,3.5 55.7,4.300000000000001 54.4,4.5 C 53.8,4.6 53.1,4.6 52.199999999999996,4.6 C 52.199999999999996,6.699999999999999 52.199999999999996,8.7 52.199999999999996,10.6 C 52.199999999999996,10.9 52.699999999999996,11.4 52.99999999999999,11.5 C 55.599999999999994,12.5 58.199999999999996,13.4 60.79999999999999,14.4 C 62.19999999999999,13.0 63.79999999999999,11.4 65.49999999999999,9.7 C 65.19999999999999,9.399999999999999 64.69999999999999,8.899999999999999 64.29999999999998,8.5 C 63.499999999999986,7.5 63.499999999999986,6.4 64.39999999999998,5.5 C 65.19999999999997,4.6 66.39999999999998,4.4 67.29999999999998,5.2 C 69.59999999999998,7.4 71.89999999999998,9.600000000000001 73.99999999999999,12.0 C 74.39999999999999,12.5 74.19999999999999,13.9 73.79999999999998,14.7 C 73.19999999999999,15.7 72.09999999999998,15.899999999999999 70.99999999999999,15.299999999999999 C 70.29999999999998,14.899999999999999 69.69999999999999,14.299999999999999 69.09999999999998,13.799999999999999 C 67.39999999999998,15.499999999999998 65.79999999999998,17.099999999999998 64.49999999999999,18.4 C 65.49999999999999,21.099999999999998 66.39999999999999,23.799999999999997 67.39999999999999,26.4 C 67.49999999999999,26.7 67.89999999999999,27.099999999999998 68.19999999999999,27.099999999999998 C 70.29999999999998,27.2 72.39999999999999,27.099999999999998 74.6,27.099999999999998 C 74.6,26.299999999999997 74.69999999999999,25.7 74.69999999999999,25.099999999999998 C 74.79999999999998,23.7 75.49999999999999,22.9 76.89999999999999,22.799999999999997 C 78.19999999999999,22.699999999999996 79.19999999999999,23.599999999999998 79.19999999999999,24.799999999999997 C 79.29999999999998,27.9 79.39999999999999,31.099999999999998 79.1,34.199999999999996 C 79.0,34.9 77.8,35.8 76.89999999999999,35.99999999999999 C 75.69999999999999,36.199999999999996 74.8,35.29999999999999 74.69999999999999,33.99999999999999 C 74.6,33.39999999999999 74.69999999999999,32.79999999999999 74.69999999999999,31.89999999999999 C 72.49999999999999,31.89999999999999 70.29999999999998,31.89999999999999 68.19999999999999,31.89999999999999 C 67.89999999999999,31.89999999999999 67.49999999999999,32.39999999999999 67.39999999999999,32.79999999999999 C 66.39999999999999,35.29999999999999 65.49999999999999,37.79999999999999 64.39999999999999,40.79999999999999 C 65.8,42.09999999999999 67.6,43.79999999999999 69.39999999999999,45.59999999999999 C 69.99999999999999,44.999999999999986 70.39999999999999,44.59999999999999 70.89999999999999,44.19999999999999 C 71.89999999999999,43.39999999999999 72.99999999999999,43.39999999999999 73.99999999999999,44.29999999999999 C 74.89999999999999,45.09999999999999 75.09999999999998,46.29999999999999 74.29999999999998,47.19999999999999 C 72.09999999999998,49.59999999999999 69.79999999999998,51.89999999999999 67.39999999999998,54.09999999999999 C 66.49999999999997,54.999999999999986 65.19999999999997,54.69999999999999 64.59999999999998,53.69999999999999 C 64.19999999999997,52.999999999999986 64.09999999999998,51.89999999999999 64.29999999999998,50.999999999999986 C 64.39999999999998,50.29999999999998 65.19999999999999,49.79999999999998 65.99999999999999,48.79999999999998 C 64.49999999999999,47.399999999999984 62.999999999999986,45.999999999999986 61.399999999999984,44.69999999999998 C 61.09999999999999,44.49999999999998 60.29999999999998,44.49999999999998 59.899999999999984,44.69999999999998 C 57.69999999999998,45.59999999999998 55.59999999999999,46.49999999999998 53.399999999999984,47.399999999999984 C 52.899999999999984,47.59999999999999 52.29999999999998,48.09999999999999 52.29999999999998,48.399999999999984 C 52.19999999999998,50.399999999999984 52.19999999999998,52.499999999999986 52.19999999999998,54.69999999999998 C 52.99999999999998,54.69999999999998 53.69999999999998,54.79999999999998 54.29999999999998,54.79999999999998 C 55.499999999999986,54.899999999999984 56.29999999999998,55.59999999999998 56.399999999999984,56.79999999999998 C 56.59999999999999,58.09999999999998 55.79999999999998,59.19999999999998 54.59999999999999,59.29999999999998 C 51.399999999999984,59.499999999999986 48.19999999999999,59.499999999999986 44.999999999999986,59.29999999999998 C 43.69999999999999,59.19999999999998 42.999999999999986,58.19999999999998 43.19999999999999,56.899999999999984 C 43.29999999999999,55.69999999999998 44.09999999999999,54.899999999999984 45.39999999999999,54.79999999999998 C 46.4,54.7 46.9,54.7 47.8,54.7 M 49.2,17.7 C 43.300000000000004,17.8 37.900000000000006,23.4 38.300000000000004,29.299999999999997 C 38.400000000000006,30.699999999999996 39.00000000000001,31.599999999999998 40.400000000000006,31.599999999999998 C 41.800000000000004,31.599999999999998 42.60000000000001,30.9 42.800000000000004,29.499999999999996 C 43.50000000000001,24.699999999999996 45.1,23.099999999999994 50.00000000000001,22.199999999999996 C 51.400000000000006,21.899999999999995 52.50000000000001,21.299999999999997 52.300000000000004,19.599999999999994 C 52.1,18.1 50.9,17.6 49.2,17.7" fill="#d92d59" stroke="none" stroke-width="2.0px" /><path d="M 85.3,51.6 C 87.5,48.5 89.6,45.4 91.8,42.400000000000006 C 93.0,40.7 94.8,40.300000000000004 96.5,41.10000000000001 C 98.1,41.900000000000006 98.8,43.400000000000006 98.2,45.50000000000001 C 95.8,54.50000000000001 93.4,63.50000000000001 90.9,72.5 C 90.2,75.0 88.7,76.9 86.5,78.3 C 82.5,80.8 78.5,83.3 74.4,85.7 C 74.0,85.9 73.5,86.2 73.10000000000001,86.2 C 67.00000000000001,86.2 60.900000000000006,86.2 54.60000000000001,86.2 C 54.80000000000001,85.5 54.80000000000001,85.0 55.00000000000001,84.60000000000001 C 56.60000000000001,79.50000000000001 58.20000000000001,74.50000000000001 59.70000000000001,69.4 C 60.40000000000001,67.0 61.80000000000001,65.2 63.80000000000001,63.800000000000004 C 68.30000000000001,60.6 72.9,57.400000000000006 77.4,54.2 C 79.2,52.900000000000006 80.9,53.0 82.0,54.300000000000004 C 83.2,55.6 83.1,57.2 81.4,58.800000000000004 C 77.9,62.2 74.2,65.4 70.7,68.80000000000001 C 70.10000000000001,69.30000000000001 69.7,70.30000000000001 69.8,71.10000000000001 C 69.8,71.60000000000001 70.7,72.30000000000001 71.3,72.50000000000001 C 71.8,72.70000000000002 72.6,72.40000000000002 73.0,72.10000000000001 C 77.1,68.30000000000001 81.3,64.60000000000001 85.2,60.60000000000001 C 87.4,58.4 87.3,55.2 85.3,51.6" fill="#d92d59" stroke="none" stroke-width="2.0px" /><path d="M 45.2,86.0 C 41.400000000000006,86.0 37.7,85.7 34.0,86.1 C 28.6,86.6 23.9,85.39999999999999 19.7,82.0 C 17.9,80.6 15.7,79.5 13.7,78.2 C 11.299999999999999,76.7 9.7,74.60000000000001 8.899999999999999,71.8 C 6.599999999999999,63.0 4.099999999999999,54.099999999999994 1.799999999999999,45.3 C 1.299999999999999,43.3 1.999999999999999,41.8 3.699999999999999,40.9 C 5.199999999999999,40.1 6.799999999999999,40.5 7.999999999999998,42.1 C 10.099999999999998,44.9 12.2,47.800000000000004 14.099999999999998,50.8 C 14.299999999999997,51.099999999999994 14.299999999999997,51.9 13.999999999999998,52.3 C 12.399999999999999,55.599999999999994 12.599999999999998,58.5 15.199999999999998,61.099999999999994 C 18.799999999999997,64.69999999999999 22.599999999999998,68.1 26.299999999999997,71.5 C 27.4,72.5 28.499999999999996,72.9 29.699999999999996,71.8 C 30.599999999999994,70.89999999999999 30.199999999999996,69.6 28.799999999999997,68.39999999999999 C 25.199999999999996,65.1 21.699999999999996,61.79999999999999 18.199999999999996,58.49999999999999 C 16.699999999999996,57.099999999999994 16.699999999999996,55.49999999999999 17.799999999999997,54.199999999999996 C 18.799999999999997,52.99999999999999 20.599999999999998,52.699999999999996 22.099999999999998,53.8 C 27.0,57.199999999999996 31.9,60.599999999999994 36.699999999999996,64.2 C 38.099999999999994,65.2 39.3,66.9 39.8,68.5 C 41.699999999999996,73.9 43.3,79.4 45.0,84.9 C 45.2,85.2 45.2,85.5 45.2,86.0" fill="#d92d59" stroke="none" stroke-width="2.0px" /><path d="M 27.5,90.2 C 33.9,90.2 39.9,90.2 46.2,90.2 C 46.2,92.9 46.2,95.60000000000001 46.2,98.2 C 46.2,99.4 45.300000000000004,100.0 44.2,100.0 C 39.300000000000004,100.0 34.5,100.0 29.6,100.0 C 28.400000000000002,100.0 27.5,99.4 27.5,98.1 C 27.5,95.5 27.5,92.9 27.5,90.2" fill="#d92d59" stroke="none" stroke-width="2.0px" /><path d="M 53.8,90.2 C 60.099999999999994,90.2 66.2,90.2 72.5,90.2 C 72.5,92.9 72.5,95.60000000000001 72.5,98.2 C 72.5,99.4 71.6,100.0 70.5,100.0 C 65.6,100.0 60.8,100.0 55.9,100.0 C 54.8,100.0 53.9,99.5 53.8,98.3 C 53.7,95.6 53.8,93.0 53.8,90.2" fill="#d92d59" stroke="none" stroke-width="2.0px" /></g></svg>